<svg width="124" height="120" viewBox="0 0 124 120" fill="none" xmlns="http://www.w3.org/2000/svg">
<circle cx="41.6668" cy="117.666" r="2.33333" fill="#FF981F"/>
<circle cx="81.3332" cy="114" r="0.666667" fill="#FF981F"/>
<circle cx="6.66683" cy="88.6663" r="3.33333" fill="#FF981F"/>
<circle cx="63.6665" cy="61" r="47" fill="#FF981F"/>
<circle cx="110.333" cy="107" r="1.66667" fill="#FF981F"/>
<circle cx="113.667" cy="73.6667" r="1.66667" fill="#FF981F"/>
<circle cx="0.666667" cy="49.9997" r="0.666667" fill="#FF981F"/>
<path d="M77.6648 65.0541L77.9919 62.023C78.1644 60.4052 78.2799 59.3385 78.1893 58.6665H78.2213C78.8298 58.6664 79.4199 58.4581 79.8938 58.0763C80.3676 57.6945 80.6966 57.1621 80.8261 56.5675C80.9556 55.9729 80.8779 55.3519 80.6059 54.8076C80.3338 54.2633 79.8838 53.8284 79.3305 53.5751C78.7772 53.3219 78.1539 53.2655 77.5641 53.4153C76.9743 53.5651 76.4535 53.9121 76.0881 54.3987C75.7227 54.8853 75.5348 55.4822 75.5554 56.0904C75.5761 56.6986 75.8041 57.2814 76.2017 57.7421C75.6221 58.0994 74.8648 58.855 73.7253 59.991C72.8453 60.8674 72.4061 61.3047 71.9155 61.3723C71.6436 61.4098 71.3666 61.371 71.1155 61.2603C70.6639 61.0612 70.3617 60.5207 69.759 59.4381L66.5768 53.7332C66.2053 53.0665 65.8941 52.5065 65.6133 52.0585C66.3248 51.6959 66.8936 51.1043 67.228 50.3791C67.5623 49.6538 67.6428 48.837 67.4563 48.0605C67.2699 47.2839 66.8274 46.5927 66.2002 46.0983C65.5731 45.6038 64.7977 45.335 63.999 45.335C63.2004 45.335 62.425 45.6038 61.7978 46.0983C61.1706 46.5927 60.7282 47.2839 60.5417 48.0605C60.3553 48.837 60.4357 49.6538 60.7701 50.3791C61.1044 51.1043 61.6732 51.6959 62.3848 52.0585C62.1039 52.5083 61.7928 53.0665 61.4195 53.7332L58.239 59.4381C57.6346 60.5207 57.3324 61.0612 56.8808 61.2603C56.6297 61.371 56.3527 61.4098 56.0808 61.3723C55.5919 61.3047 55.1528 60.8674 54.2728 59.991C53.1333 58.855 52.3759 58.0994 51.7964 57.7421C52.1939 57.2814 52.422 56.6986 52.4426 56.0904C52.4633 55.4822 52.2753 54.8853 51.91 54.3987C51.5446 53.9121 51.0238 53.5651 50.434 53.4153C49.8442 53.2655 49.2209 53.3219 48.6676 53.5751C48.1143 53.8284 47.6643 54.2633 47.3922 54.8076C47.1201 55.3519 47.0424 55.9729 47.172 56.5675C47.3015 57.1621 47.6305 57.6945 48.1043 58.0763C48.5781 58.4581 49.1683 58.6664 49.7768 58.6665H49.8088C49.7181 59.3385 49.8337 60.407 50.0061 62.023L50.3333 65.0541C50.5146 66.7359 50.6639 68.3376 50.8488 69.7776H77.1493C77.3341 68.3376 77.4835 66.7376 77.6648 65.0541ZM62.0648 77.3332H65.9333C70.975 77.3332 73.4959 77.3332 75.1777 75.8274C75.9119 75.1696 76.3759 73.9856 76.7119 72.4443H51.2861C51.6221 73.9856 52.0861 75.1714 52.8204 75.8274C54.5021 77.3332 57.023 77.3332 62.0648 77.3332Z" fill="white"/>
<circle cx="119" cy="18.333" r="5" fill="#FF981F"/>
<circle cx="71.0002" cy="2.99967" r="1.66667" fill="#FF981F"/>
<circle cx="13.3332" cy="6.66667" r="6.66667" fill="#FF981F"/>
</svg>
