<svg width="28" height="28" viewBox="0 0 28 28" fill="none" xmlns="http://www.w3.org/2000/svg">
<path fill-rule="evenodd" clip-rule="evenodd" d="M8.41912 18.6701C8.23246 18.6701 8.04462 18.6106 7.88596 18.4893C7.50329 18.1941 7.43096 17.6446 7.72612 17.262L11.218 12.7236C11.3603 12.5381 11.5715 12.418 11.8025 12.3888C12.0381 12.3585 12.2691 12.4238 12.4523 12.5696L15.7423 15.1538L18.6205 11.4403C18.9168 11.0565 19.4651 10.9853 19.8478 11.284C20.2305 11.5803 20.3005 12.1298 20.0041 12.5113L16.5858 16.9213C16.4435 17.1056 16.2335 17.2258 16.0025 17.2538C15.7691 17.2853 15.5381 17.2176 15.3538 17.0741L12.0661 14.4911L9.11329 18.3283C8.94062 18.5523 8.68162 18.6701 8.41912 18.6701" fill="#212121"/>
<mask id="mask0_734_1419" style="mask-type:luminance" maskUnits="userSpaceOnUse" x="20" y="2" width="7" height="7">
<path fill-rule="evenodd" clip-rule="evenodd" d="M20.178 2.3335H26.4126V8.56921H20.178V2.3335Z" fill="white"/>
</mask>
<g mask="url(#mask0_734_1419)">
<path fill-rule="evenodd" clip-rule="evenodd" d="M23.2953 4.08301C22.5416 4.08301 21.928 4.69551 21.928 5.45034C21.928 6.20401 22.5416 6.81884 23.2953 6.81884C24.049 6.81884 24.6626 6.20401 24.6626 5.45034C24.6626 4.69551 24.049 4.08301 23.2953 4.08301M23.2953 8.56884C21.5768 8.56884 20.178 7.17001 20.178 5.45034C20.178 3.73067 21.5768 2.33301 23.2953 2.33301C25.015 2.33301 26.4126 3.73067 26.4126 5.45034C26.4126 7.17001 25.015 8.56884 23.2953 8.56884" fill="#212121"/>
</g>
<mask id="mask1_734_1419" style="mask-type:luminance" maskUnits="userSpaceOnUse" x="2" y="3" width="24" height="24">
<path fill-rule="evenodd" clip-rule="evenodd" d="M2.33325 3.31543H25.5055V26.4866H2.33325V3.31543Z" fill="white"/>
</mask>
<g mask="url(#mask1_734_1419)">
<path fill-rule="evenodd" clip-rule="evenodd" d="M18.9384 26.4866H8.90042C4.97225 26.4866 2.33325 23.7274 2.33325 19.6208V10.1918C2.33325 6.07926 4.97225 3.31543 8.90042 3.31543H17.3798C17.8628 3.31543 18.2548 3.70743 18.2548 4.19043C18.2548 4.67343 17.8628 5.06543 17.3798 5.06543H8.90042C5.97442 5.06543 4.08325 7.07676 4.08325 10.1918V19.6208C4.08325 22.7766 5.92892 24.7366 8.90042 24.7366H18.9384C21.8644 24.7366 23.7556 22.7288 23.7556 19.6208V11.4086C23.7556 10.9256 24.1476 10.5336 24.6306 10.5336C25.1136 10.5336 25.5056 10.9256 25.5056 11.4086V19.6208C25.5056 23.7274 22.8666 26.4866 18.9384 26.4866" fill="#212121"/>
</g>
</svg>
