<svg width="20" height="20" viewBox="0 0 20 20" fill="none" xmlns="http://www.w3.org/2000/svg">
<path d="M12.8745 3.1499C12.8412 3.35817 12.8247 3.56663 12.8247 3.7749C12.8247 5.6499 14.3418 7.16553 16.2085 7.16553C16.4166 7.1655 16.6166 7.14219 16.8247 7.10889V13.8325C16.8247 16.6584 15.158 18.3335 12.3247 18.3335H6.16748C3.33331 18.3335 1.6665 16.6584 1.6665 13.8325V7.6665C1.6666 4.83332 3.3334 3.1499 6.16748 3.1499H12.8745ZM13.0425 8.21631C12.8167 8.19132 12.5927 8.29186 12.4585 8.4751L10.4419 11.0835L8.1333 9.26709C7.99163 9.15876 7.82438 9.1158 7.65771 9.1333C7.49216 9.15838 7.34244 9.24925 7.2417 9.38232L4.77588 12.5913L4.7251 12.6665C4.58343 12.9323 4.6499 13.2743 4.8999 13.4585C5.01642 13.5334 5.14127 13.5834 5.28271 13.5835C5.47521 13.5918 5.65824 13.491 5.7749 13.3335L7.8667 10.6411L10.2417 12.4253L10.3169 12.4741C10.5835 12.6156 10.9163 12.5499 11.1079 12.2993L13.5161 9.19189L13.4829 9.2085C13.6162 9.02523 13.6418 8.79177 13.5503 8.5835C13.4595 8.3752 13.2583 8.23301 13.0425 8.21631ZM16.3247 1.6665C17.433 1.6665 18.3335 2.56696 18.3335 3.67529C18.3333 4.78342 17.4329 5.68311 16.3247 5.68311C15.2166 5.68299 14.3171 4.78335 14.3169 3.67529C14.3169 2.56703 15.2165 1.66662 16.3247 1.6665Z" fill="#9E9E9E"/>
</svg>
