<svg width="16" height="16" viewBox="0 0 16 16" fill="none" xmlns="http://www.w3.org/2000/svg">
<path d="M9 1.33301C9 1.62917 8.87127 1.89527 8.66667 2.07837V3.33301H12C13.1046 3.33301 14 4.22844 14 5.33301V11.9997C14 13.1043 13.1046 13.9997 12 13.9997H4C2.89543 13.9997 2 13.1043 2 11.9997V5.33301C2 4.22844 2.89543 3.33301 4 3.33301H7.33333V2.07837C7.12873 1.89527 7 1.62917 7 1.33301C7 0.780721 7.44773 0.333008 8 0.333008C8.55227 0.333008 9 0.780721 9 1.33301ZM0 6.66634H1.33333V10.6663H0V6.66634ZM16 6.66634H14.6667V10.6663H16V6.66634ZM6 9.66634C6.55229 9.66634 7 9.21861 7 8.66634C7 8.11407 6.55229 7.66634 6 7.66634C5.44771 7.66634 5 8.11407 5 8.66634C5 9.21861 5.44771 9.66634 6 9.66634ZM11 8.66634C11 8.11407 10.5523 7.66634 10 7.66634C9.44773 7.66634 9 8.11407 9 8.66634C9 9.21861 9.44773 9.66634 10 9.66634C10.5523 9.66634 11 9.21861 11 8.66634Z" fill="white"/>
</svg>
