<svg width="74" height="22" viewBox="0 0 74 22" fill="none" xmlns="http://www.w3.org/2000/svg">
<g clip-path="url(#clip0_248_23279)">
<path fill-rule="evenodd" clip-rule="evenodd" d="M45.9081 17.2046C41.6078 20.3315 35.3749 21.9999 30.0084 21.9999C22.4837 21.9999 15.7096 19.2543 10.5847 14.6877C10.1821 14.3286 10.5428 13.8393 11.026 14.1189C16.5568 17.2935 23.3953 19.2034 30.4593 19.2034C35.2235 19.2034 40.4643 18.231 45.2832 16.2131C46.0112 15.908 46.62 16.6834 45.9081 17.2046Z" fill="#FF9900"/>
<path fill-rule="evenodd" clip-rule="evenodd" d="M47.6957 15.187C47.1481 14.4942 44.0622 14.8597 42.6771 15.0218C42.2552 15.0726 42.1907 14.7103 42.5708 14.4498C45.0286 12.7433 49.0615 13.2358 49.5318 13.8078C50.0021 14.383 49.4094 18.3712 47.0998 20.2747C46.7455 20.567 46.4073 20.4113 46.5651 20.0236C47.0837 18.7462 48.2466 15.883 47.6957 15.187Z" fill="#FF9900"/>
<path fill-rule="evenodd" clip-rule="evenodd" d="M42.7741 2.40251V0.743689C42.7741 0.492643 42.9674 0.324219 43.1993 0.324219H50.7272C50.9688 0.324219 51.1621 0.495821 51.1621 0.743689V2.16417C51.1588 2.40251 50.9559 2.71393 50.5951 3.20649L46.6943 8.70093C48.1438 8.66597 49.6739 8.87888 50.9881 9.60978C51.2845 9.77503 51.365 10.0165 51.3875 10.2549V12.0249C51.3875 12.2664 51.117 12.5493 50.8335 12.4031C48.5175 11.205 45.4412 11.0748 42.8804 12.4158C42.6195 12.5556 42.3457 12.276 42.3457 12.0345V10.3534C42.3457 10.0833 42.3489 9.62249 42.6227 9.21255L47.142 2.8188H43.209C42.9674 2.8188 42.7741 2.65038 42.7741 2.40251Z" fill="#212121"/>
<path fill-rule="evenodd" clip-rule="evenodd" d="M15.3136 12.7527H13.0233C12.8043 12.7368 12.6304 12.5747 12.6143 12.3681V0.772315C12.6143 0.540335 12.8108 0.35602 13.0556 0.35602H15.1912C15.4135 0.365547 15.5906 0.533977 15.6067 0.743712V2.25953H15.6486C16.2059 0.794558 17.2527 0.111328 18.6636 0.111328C20.097 0.111328 20.9925 0.794558 21.6368 2.25953C22.1908 0.794558 23.4503 0.111328 24.8 0.111328C25.7599 0.111328 26.81 0.502199 27.451 1.37927C28.1757 2.35486 28.0276 3.77217 28.0276 5.01469L28.0244 12.3332C28.0244 12.5652 27.8279 12.7527 27.5831 12.7527H25.296C25.0673 12.7368 24.8837 12.5556 24.8837 12.3332V6.1873C24.8837 5.69792 24.9288 4.47764 24.8193 4.01368C24.6486 3.23512 24.1364 3.01585 23.4728 3.01585C22.9188 3.01585 22.339 3.3813 22.1038 3.96601C21.8687 4.55073 21.8912 5.52949 21.8912 6.1873V12.3332C21.8912 12.5652 21.6947 12.7527 21.4499 12.7527H19.1629C18.931 12.7368 18.7506 12.5556 18.7506 12.3332L18.7474 6.1873C18.7474 4.89393 18.9632 2.99042 17.3365 2.99042C15.6905 2.99042 15.7549 4.84626 15.7549 6.1873V12.3332C15.7549 12.5652 15.5584 12.7527 15.3136 12.7527Z" fill="#212121"/>
<path fill-rule="evenodd" clip-rule="evenodd" d="M57.6426 0.111328C61.041 0.111328 62.8803 2.99042 62.8803 6.65126C62.8803 10.1882 60.8477 12.9942 57.6426 12.9942C54.3055 12.9942 52.4888 10.1151 52.4888 6.52733C52.4888 2.91733 54.3281 0.111328 57.6426 0.111328ZM57.662 2.4788C55.9741 2.4788 55.8678 4.74775 55.8678 6.16188C55.8678 7.57918 55.8452 10.6045 57.6426 10.6045C59.4175 10.6045 59.5013 8.1639 59.5013 6.67668C59.5013 5.69792 59.4594 4.52849 59.1598 3.60056C58.9021 2.7934 58.39 2.4788 57.662 2.4788Z" fill="#212121"/>
<path fill-rule="evenodd" clip-rule="evenodd" d="M67.2869 12.7527H65.0063C64.7776 12.7368 64.594 12.5556 64.594 12.3332L64.5908 0.734179C64.6101 0.521266 64.8002 0.35602 65.0321 0.35602H67.1549C67.3546 0.365547 67.5189 0.499022 67.564 0.680157V2.45337H67.6058C68.2469 0.867647 69.1456 0.111328 70.7272 0.111328C71.7547 0.111328 72.7565 0.476777 73.4007 1.47779C73.9999 2.40571 73.9999 3.96601 73.9999 5.08778V12.3872C73.9741 12.5906 73.784 12.7527 73.5586 12.7527H71.2619C71.0525 12.7368 70.8785 12.5842 70.856 12.3872V6.08879C70.856 4.82084 71.0042 2.965 69.4226 2.965C68.8653 2.965 68.3531 3.33363 68.0987 3.89292C67.7766 4.60158 67.7347 5.30705 67.7347 6.08879V12.3332C67.7315 12.5652 67.5317 12.7527 67.2869 12.7527Z" fill="#212121"/>
<path fill-rule="evenodd" clip-rule="evenodd" d="M36.7728 7.21363C36.7728 8.09388 36.7953 8.82796 36.3444 9.6097C35.9804 10.2453 35.4006 10.6361 34.7595 10.6361C33.8802 10.6361 33.3648 9.97515 33.3648 8.99956C33.3648 7.07381 35.1139 6.72425 36.7728 6.72425V7.21363ZM39.0824 12.7208C38.931 12.8542 38.7119 12.8638 38.5412 12.7748C37.781 12.1519 37.6425 11.8628 37.227 11.2685C35.9707 12.5333 35.0784 12.9114 33.4517 12.9114C31.5223 12.9114 30.0244 11.7388 30.0244 9.39043C30.0244 7.55684 31.0294 6.30796 32.4661 5.69782C33.7094 5.15759 35.4456 5.06225 36.7728 4.9129V4.62054C36.7728 4.08349 36.8146 3.44792 36.4925 2.98397C36.2155 2.56767 35.6808 2.39607 35.2073 2.39607C34.3343 2.39607 33.558 2.83779 33.368 3.75299C33.3293 3.95638 33.1779 4.15658 32.9686 4.16611L30.7492 3.93095C30.5623 3.88964 30.353 3.74028 30.4077 3.45746C30.9167 0.80081 33.3519 0 35.5294 0C36.6439 0 38.0999 0.292359 38.9793 1.12494C40.0938 2.15138 39.9875 3.52101 39.9875 5.01141V8.53242C39.9875 9.59064 40.432 10.0546 40.8508 10.6266C40.9957 10.83 41.0279 11.0747 40.8411 11.2272C40.374 11.6117 39.543 12.3267 39.0856 12.7271L39.0824 12.7208Z" fill="#212121"/>
<path fill-rule="evenodd" clip-rule="evenodd" d="M6.74836 7.21363C6.74836 8.09388 6.7709 8.82796 6.31994 9.6097C5.95595 10.2453 5.37936 10.6361 4.73512 10.6361C3.85574 10.6361 3.34358 9.97515 3.34358 8.99956C3.34358 7.07381 5.09267 6.72425 6.74836 6.72425V7.21363ZM9.05794 12.7208C8.90654 12.8542 8.6875 12.8638 8.51678 12.7748C7.75658 12.1519 7.62129 11.8628 7.20254 11.2685C5.94628 12.5333 5.05724 12.9114 3.42733 12.9114C1.50106 12.9114 0 11.7388 0 9.39043C0 7.55684 1.00823 6.30796 2.44165 5.69782C3.68502 5.15759 5.42123 5.06225 6.74836 4.9129V4.62054C6.74836 4.08349 6.79023 3.44792 6.47134 2.98397C6.19109 2.56767 5.65638 2.39607 5.18609 2.39607C4.31315 2.39607 3.53363 2.83779 3.34358 3.75299C3.30492 3.95638 3.15353 4.15658 2.94737 4.16611L0.724764 3.93095C0.537935 3.88964 0.33178 3.74028 0.383319 3.45746C0.895486 0.80081 3.32747 0 5.50498 0C6.61951 0 8.07548 0.292359 8.95486 1.12494C10.0694 2.15138 9.96308 3.52101 9.96308 5.01141V8.53242C9.96308 9.59064 10.4076 10.0546 10.8264 10.6266C10.9745 10.83 11.0067 11.0747 10.8199 11.2272C10.3528 11.6117 9.52178 12.3267 9.06438 12.7271L9.05794 12.7208Z" fill="#212121"/>
</g>
<defs>
<clipPath id="clip0_248_23279">
<rect width="74" height="22" fill="white"/>
</clipPath>
</defs>
</svg>
