<svg width="36" height="36" viewBox="0 0 36 36" fill="none" xmlns="http://www.w3.org/2000/svg">
<g clip-path="url(#clip0_248_23288)">
<path d="M0 0H35.9106V19.4339L34.1331 22.2181L35.9106 24.6961V36H0V17.6798L1.11092 16.3991L0 15.174V0Z" fill="#016FD0"/>
<path d="M6.97119 25.0856V19.4336H12.9407L13.5812 20.2706L14.2428 19.4336H35.9108V24.6958C35.9108 24.6958 35.3441 25.0799 34.6887 25.0856H22.6908L21.9687 24.1946V25.0856H19.6024V23.5647C19.6024 23.5647 19.2792 23.777 18.5803 23.777H17.7749V25.0856H14.1922L13.5526 24.2306L12.9033 25.0856H6.97119Z" fill="white"/>
<path d="M0 15.1735L1.34615 12.0273H3.67418L4.43814 13.7897V12.0273H7.3321L7.78688 13.3011L8.22778 12.0273H21.2186V12.6677C21.2186 12.6677 21.9016 12.0273 23.0239 12.0273L27.2389 12.0421L27.9897 13.7814V12.0273H30.4115L31.0781 13.0264V12.0273H33.5221V17.6793H31.0781L30.4393 16.677V17.6793H26.8811L26.5233 16.7884H25.5667L25.2147 17.6793H22.8017C21.836 17.6793 21.2186 17.052 21.2186 17.052V17.6793H17.5804L16.8583 16.7884V17.6793H3.3293L2.97172 16.7884H2.01821L1.66316 17.6793H0V15.1735Z" fill="white"/>
<path d="M1.8225 12.7246L0.00683594 16.9566H1.18893L1.52394 16.1092H3.47153L3.80481 16.9566H5.01294L3.19901 12.7246H1.8225ZM2.49426 13.7095L3.08791 15.1904H1.89888L2.49426 13.7095Z" fill="#016FD0"/>
<path d="M5.13818 16.9557V12.7236L6.818 12.7299L7.79504 15.4584L8.74869 12.7236H10.4151V16.9557H9.35969V13.8373L8.24097 16.9557H7.3154L6.19356 13.8373V16.9557H5.13818Z" fill="#016FD0"/>
<path d="M11.1372 16.9557V12.7236H14.5811V13.6703H12.2037V14.3942H14.5255V15.2851H12.2037V16.0369H14.5811V16.9557H11.1372Z" fill="#016FD0"/>
<path d="M15.1919 12.7246V16.9566H16.2473V15.4531H16.6916L17.9571 16.9566H19.2468L17.8581 15.3975C18.428 15.3493 19.0159 14.8589 19.0159 14.0976C19.0159 13.207 18.3186 12.7246 17.5405 12.7246H15.1919ZM16.2473 13.6712H17.4537C17.7431 13.6712 17.9536 13.8982 17.9536 14.1167C17.9536 14.3979 17.6808 14.5622 17.4693 14.5622H16.2473V13.6712Z" fill="#016FD0"/>
<path d="M20.5244 16.9557H19.4468V12.7236H20.5244V16.9557Z" fill="#016FD0"/>
<path d="M23.0794 16.9557H22.8468C21.7214 16.9557 21.0381 16.0668 21.0381 14.857C21.0381 13.6174 21.7137 12.7236 23.135 12.7236H24.3014V13.726H23.0923C22.5154 13.726 22.1074 14.1773 22.1074 14.8675C22.1074 15.6871 22.5739 16.0313 23.246 16.0313H23.5238L23.0794 16.9557Z" fill="#016FD0"/>
<path d="M25.3757 12.7246L23.5601 16.9566H24.7422L25.0772 16.1092H27.0248L27.358 16.9566H28.5662L26.7522 12.7246H25.3757ZM26.0475 13.7095L26.6411 15.1904H25.4521L26.0475 13.7095Z" fill="#016FD0"/>
<path d="M28.6895 16.9557V12.7236H30.0312L31.7445 15.3826V12.7236H32.7999V16.9557H31.5015L29.7448 14.2271V16.9557H28.6895Z" fill="#016FD0"/>
<path d="M7.69336 24.3619V20.1299H11.1372V21.0765H8.75985V21.8004H11.0817V22.6914H8.75985V23.4431H11.1372V24.3619H7.69336Z" fill="#016FD0"/>
<path d="M24.5679 24.3619V20.1299H28.0117V21.0765H25.6344V21.8004H27.9451V22.6914H25.6344V23.4431H28.0117V24.3619H24.5679Z" fill="#016FD0"/>
<path d="M11.2709 24.3619L12.9477 22.272L11.231 20.1299H12.5606L13.583 21.4541L14.6089 20.1299H15.8864L14.1923 22.2459L15.8721 24.3619H14.5427L13.55 23.0585L12.5814 24.3619H11.2709Z" fill="#016FD0"/>
<path d="M15.9971 20.1309V24.3629H17.0802V23.0265H18.1911C19.1311 23.0265 19.8436 22.5265 19.8436 21.5543C19.8436 20.7489 19.2848 20.1309 18.3283 20.1309H15.9971ZM17.0802 21.0879H18.2502C18.5538 21.0879 18.7709 21.2745 18.7709 21.5752C18.7709 21.8576 18.5549 22.0624 18.2467 22.0624H17.0802V21.0879Z" fill="#016FD0"/>
<path d="M20.3022 20.1299V24.3619H21.3576V22.8584H21.802L23.0674 24.3619H24.3571L22.9685 22.8027C23.5384 22.7545 24.1263 22.2642 24.1263 21.5029C24.1263 20.6123 23.429 20.1299 22.6508 20.1299H20.3022ZM21.3576 21.0765H22.564C22.8534 21.0765 23.0639 21.3035 23.0639 21.522C23.0639 21.8032 22.7912 21.9675 22.5796 21.9675H21.3576V21.0765Z" fill="#016FD0"/>
<path d="M28.5007 24.3619V23.4431H30.6128C30.9254 23.4431 31.0607 23.2738 31.0607 23.0881C31.0607 22.9102 30.9258 22.7303 30.6128 22.7303H29.6584C28.8287 22.7303 28.3667 22.2236 28.3667 21.4628C28.3667 20.7843 28.7898 20.1299 30.0227 20.1299H32.0779L31.6335 21.0821H29.856C29.5163 21.0821 29.4117 21.2608 29.4117 21.4315C29.4117 21.6069 29.5409 21.8004 29.8005 21.8004H30.8003C31.7252 21.8004 32.1265 22.3263 32.1265 23.015C32.1265 23.7555 31.6793 24.3619 30.75 24.3619H28.5007Z" fill="#016FD0"/>
<path d="M32.3742 24.3619V23.4431H34.4864C34.7989 23.4431 34.9342 23.2738 34.9342 23.0881C34.9342 22.9102 34.7993 22.7303 34.4864 22.7303H33.5319C32.7023 22.7303 32.2402 22.2236 32.2402 21.4628C32.2402 20.7843 32.6634 20.1299 33.8962 20.1299H35.9514L35.507 21.0821H33.7296C33.3898 21.0821 33.2852 21.2608 33.2852 21.4315C33.2852 21.6069 33.4145 21.8004 33.674 21.8004H34.6739C35.5987 21.8004 36 22.3263 36 23.015C36 23.7555 35.5528 24.3619 34.6235 24.3619H32.3742Z" fill="#016FD0"/>
</g>
<defs>
<clipPath id="clip0_248_23288">
<rect width="36" height="36" fill="white"/>
</clipPath>
</defs>
</svg>
