<svg width="17" height="18" viewBox="0 0 17 18" fill="none" xmlns="http://www.w3.org/2000/svg">
<path fill-rule="evenodd" clip-rule="evenodd" d="M11.8343 13.9136C11.4893 13.9136 11.206 13.6336 11.206 13.2886C11.206 12.9436 11.4818 12.6636 11.8268 12.6636H11.8343C12.1793 12.6636 12.4593 12.9436 12.4593 13.2886C12.4593 13.6336 12.1793 13.9136 11.8343 13.9136Z" fill="#212121"/>
<path fill-rule="evenodd" clip-rule="evenodd" d="M8.13642 13.9136C7.79142 13.9136 7.50809 13.6336 7.50809 13.2886C7.50809 12.9436 7.78392 12.6636 8.12892 12.6636H8.13642C8.48142 12.6636 8.76142 12.9436 8.76142 13.2886C8.76142 13.6336 8.48142 13.9136 8.13642 13.9136Z" fill="#212121"/>
<path fill-rule="evenodd" clip-rule="evenodd" d="M4.43076 13.9136C4.08576 13.9136 3.80159 13.6336 3.80159 13.2886C3.80159 12.9436 4.07826 12.6636 4.42326 12.6636H4.43076C4.77576 12.6636 5.05576 12.9436 5.05576 13.2886C5.05576 13.6336 4.77576 13.9136 4.43076 13.9136Z" fill="#212121"/>
<path fill-rule="evenodd" clip-rule="evenodd" d="M11.8343 10.6746C11.4893 10.6746 11.206 10.3946 11.206 10.0496C11.206 9.70456 11.4818 9.42456 11.8268 9.42456H11.8343C12.1793 9.42456 12.4593 9.70456 12.4593 10.0496C12.4593 10.3946 12.1793 10.6746 11.8343 10.6746Z" fill="#212121"/>
<path fill-rule="evenodd" clip-rule="evenodd" d="M8.13642 10.6746C7.79142 10.6746 7.50809 10.3946 7.50809 10.0496C7.50809 9.70456 7.78392 9.42456 8.12892 9.42456H8.13642C8.48142 9.42456 8.76142 9.70456 8.76142 10.0496C8.76142 10.3946 8.48142 10.6746 8.13642 10.6746Z" fill="#212121"/>
<path fill-rule="evenodd" clip-rule="evenodd" d="M4.43076 10.6746C4.08576 10.6746 3.80159 10.3946 3.80159 10.0496C3.80159 9.70456 4.07826 9.42456 4.42326 9.42456H4.43076C4.77576 9.42456 5.05576 9.70456 5.05576 10.0496C5.05576 10.3946 4.77576 10.6746 4.43076 10.6746Z" fill="#212121"/>
<path fill-rule="evenodd" clip-rule="evenodd" d="M15.5554 7.42017H0.702087C0.357087 7.42017 0.0770874 7.14017 0.0770874 6.79517C0.0770874 6.45017 0.357087 6.17017 0.702087 6.17017H15.5554C15.9004 6.17017 16.1804 6.45017 16.1804 6.79517C16.1804 7.14017 15.9004 7.42017 15.5554 7.42017Z" fill="#212121"/>
<path fill-rule="evenodd" clip-rule="evenodd" d="M11.4946 3.9925C11.1496 3.9925 10.8696 3.7125 10.8696 3.3675V0.625C10.8696 0.28 11.1496 0 11.4946 0C11.8396 0 12.1196 0.28 12.1196 0.625V3.3675C12.1196 3.7125 11.8396 3.9925 11.4946 3.9925Z" fill="#212121"/>
<path fill-rule="evenodd" clip-rule="evenodd" d="M4.76276 3.9925C4.41776 3.9925 4.13776 3.7125 4.13776 3.3675V0.625C4.13776 0.28 4.41776 0 4.76276 0C5.10776 0 5.38776 0.28 5.38776 0.625V3.3675C5.38776 3.7125 5.10776 3.9925 4.76276 3.9925Z" fill="#212121"/>
<mask id="mask0_664_4373" style="mask-type:luminance" maskUnits="userSpaceOnUse" x="0" y="1" width="17" height="17">
<path fill-rule="evenodd" clip-rule="evenodd" d="M1.52588e-05 1.31592H16.25V17.9167H1.52588e-05V1.31592Z" fill="white"/>
</mask>
<g mask="url(#mask0_664_4373)">
<path fill-rule="evenodd" clip-rule="evenodd" d="M4.60085 2.56592C2.44002 2.56592 1.25002 3.71842 1.25002 5.81092V13.3518C1.25002 15.4901 2.44002 16.6668 4.60085 16.6668H11.6492C13.81 16.6668 15 15.5118 15 13.4151V5.81092C15.0033 4.78175 14.7267 3.98175 14.1775 3.43175C13.6125 2.86508 12.7417 2.56592 11.6567 2.56592H4.60085ZM11.6492 17.9168H4.60085C1.76335 17.9168 1.52588e-05 16.1676 1.52588e-05 13.3518V5.81092C1.52588e-05 3.03758 1.76335 1.31592 4.60085 1.31592H11.6567C13.0808 1.31592 14.2584 1.74258 15.0625 2.54842C15.8434 3.33258 16.2542 4.46008 16.25 5.81258V13.4151C16.25 16.1918 14.4867 17.9168 11.6492 17.9168Z" fill="#212121"/>
</g>
</svg>
