<svg width="24" height="24" viewBox="0 0 24 24" fill="none" xmlns="http://www.w3.org/2000/svg">
<path d="M4.8 14.4H14.4V12H4.8V14.4ZM4.8 10.8H19.2V8.4H4.8V10.8ZM4.8 7.2H19.2V4.8H4.8V7.2ZM0 24V2.4C0 1.74 0.2352 1.1752 0.7056 0.7056C1.176 0.236 1.7408 0.0008 2.4 0H21.6C22.26 0 22.8252 0.2352 23.2956 0.7056C23.766 1.176 24.0008 1.7408 24 2.4V16.8C24 17.46 23.7652 18.0252 23.2956 18.4956C22.826 18.966 22.2608 19.2008 21.6 19.2H4.8L0 24ZM3.78 16.8H21.6V2.4H2.4V18.15L3.78 16.8Z" fill="#34C759"/>
</svg>
