<svg width="20" height="20" viewBox="0 0 20 20" fill="none" xmlns="http://www.w3.org/2000/svg">
<path fill-rule="evenodd" clip-rule="evenodd" d="M9.79175 13.4618C9.44675 13.4618 9.16675 13.1818 9.16675 12.8368V6.73096C9.16675 6.38596 9.44675 6.10596 9.79175 6.10596C10.1367 6.10596 10.4167 6.38596 10.4167 6.73096V12.8368C10.4167 13.1818 10.1367 13.4618 9.79175 13.4618Z" fill="#212121"/>
<path fill-rule="evenodd" clip-rule="evenodd" d="M12.8472 10.4084H6.73633C6.39049 10.4084 6.11133 10.1284 6.11133 9.78345C6.11133 9.43845 6.39049 9.15845 6.73633 9.15845H12.8472C13.1922 9.15845 13.4722 9.43845 13.4722 9.78345C13.4722 10.1284 13.1922 10.4084 12.8472 10.4084Z" fill="#212121"/>
<path fill-rule="evenodd" clip-rule="evenodd" d="M5.88671 2.08325C3.57671 2.08325 2.08337 3.66409 2.08337 6.11242V13.4708C2.08337 15.9191 3.57671 17.4999 5.88671 17.4999H13.6967C16.0075 17.4999 17.5 15.9191 17.5 13.4708V6.11242C17.5 3.66409 16.0075 2.08325 13.6967 2.08325H5.88671ZM13.6967 18.7499H5.88671C2.86421 18.7499 0.833374 16.6283 0.833374 13.4708V6.11242C0.833374 2.95492 2.86421 0.833252 5.88671 0.833252H13.6967C16.7192 0.833252 18.75 2.95492 18.75 6.11242V13.4708C18.75 16.6283 16.7192 18.7499 13.6967 18.7499Z" fill="#212121"/>
</svg>
