<svg width="22" height="22" viewBox="0 0 22 22" fill="none" xmlns="http://www.w3.org/2000/svg">
<path d="M17.4992 12.5275L17.6627 11.012C17.7489 10.2031 17.8067 9.66975 17.7614 9.33375H17.7774C18.0816 9.33367 18.3767 9.22953 18.6136 9.03862C18.8505 8.84772 19.015 8.58152 19.0798 8.28424C19.1446 7.98695 19.1057 7.67646 18.9697 7.4043C18.8336 7.13214 18.6086 6.9147 18.332 6.78806C18.0553 6.66142 17.7437 6.63322 17.4488 6.70812C17.1539 6.78302 16.8935 6.95653 16.7108 7.19983C16.5281 7.44314 16.4341 7.74161 16.4445 8.04569C16.4548 8.34978 16.5688 8.64118 16.7676 8.87153C16.4778 9.05019 16.0992 9.42797 15.5294 9.99597C15.0894 10.4342 14.8698 10.6529 14.6245 10.6866C14.4885 10.7054 14.3501 10.686 14.2245 10.6306C13.9987 10.5311 13.8476 10.2609 13.5463 9.71953L11.9552 6.86708C11.7694 6.53375 11.6138 6.25375 11.4734 6.02975C11.8292 5.84846 12.1136 5.55266 12.2807 5.19002C12.4479 4.82738 12.4881 4.41901 12.3949 4.03072C12.3017 3.64244 12.0805 3.29684 11.7669 3.04962C11.4533 2.80241 11.0656 2.66797 10.6663 2.66797C10.2669 2.66797 9.87925 2.80241 9.56566 3.04962C9.25206 3.29684 9.03083 3.64244 8.93761 4.03072C8.84439 4.41901 8.8846 4.82738 9.05178 5.19002C9.21896 5.55266 9.50336 5.84846 9.85915 6.02975C9.71871 6.25464 9.56315 6.53375 9.37649 6.86708L7.78626 9.71953C7.48404 10.2609 7.33293 10.5311 7.10715 10.6306C6.98159 10.686 6.8431 10.7054 6.70715 10.6866C6.46271 10.6529 6.24315 10.4342 5.80315 9.99597C5.23337 9.42797 4.85471 9.05019 4.56493 8.87153C4.76371 8.64118 4.87774 8.34978 4.88807 8.04569C4.8984 7.74161 4.80442 7.44314 4.62173 7.19983C4.43904 6.95653 4.17864 6.78302 3.88374 6.70812C3.58885 6.63322 3.2772 6.66142 3.00055 6.78806C2.7239 6.9147 2.49888 7.13214 2.36285 7.4043C2.22682 7.67646 2.18796 7.98695 2.25273 8.28424C2.31749 8.58152 2.48199 8.84772 2.7189 9.03862C2.95581 9.22953 3.25089 9.33367 3.55515 9.33375H3.57115C3.52582 9.66975 3.5836 10.204 3.66982 11.012L3.83337 12.5275C3.92404 13.3684 3.99871 14.1693 4.09115 14.8893H17.2414C17.3338 14.1693 17.4085 13.3693 17.4992 12.5275ZM9.69915 18.6671H11.6334C14.1543 18.6671 15.4147 18.6671 16.2556 17.9142C16.6227 17.5853 16.8547 16.9933 17.0227 16.2226H4.30982C4.47782 16.9933 4.70982 17.5862 5.07693 17.9142C5.91782 18.6671 7.17826 18.6671 9.69915 18.6671Z" fill="#FF981F"/>
</svg>
