<svg width="24" height="27" viewBox="0 0 24 27" fill="none" xmlns="http://www.w3.org/2000/svg">
<path fill-rule="evenodd" clip-rule="evenodd" d="M3.3237 12.9487C3.36006 12.9903 3.40571 13.0224 3.45683 13.0426C3.50796 13.0627 3.5631 13.0702 3.61768 13.0645C3.67225 13.0587 3.72468 13.0399 3.77061 13.0095C3.81654 12.9792 3.85465 12.9382 3.88178 12.89C3.9089 12.8417 3.92425 12.7877 3.92655 12.7322C3.92885 12.6768 3.91805 12.6216 3.89502 12.5712C3.872 12.5209 3.83743 12.4768 3.79417 12.4427C3.75092 12.4085 3.70024 12.3853 3.64634 12.3749C2.96676 11.9135 2.3999 11.3018 1.98867 10.5862C0.876138 9.04486 0.442252 7.63858 1.54366 6.08604C1.93004 5.58872 2.41869 5.18224 2.97576 4.89475C3.53284 4.60725 4.14504 4.44561 4.76999 4.421C6.89492 4.17349 8.40796 4.58975 14.5725 5.46727C14.6617 5.47667 14.7519 5.46713 14.8373 5.43929C14.9227 5.41144 15.0014 5.36589 15.0684 5.30554C15.1354 5.24519 15.1893 5.17138 15.2265 5.08881C15.2637 5.00624 15.2834 4.91673 15.2845 4.82601C15.2845 4.08349 15.5181 1.82105 16.1634 1.4498C16.5194 1.24729 16.6529 1.6973 17.2759 2.21481C17.8989 2.73233 18.7667 3.63235 19.6122 4.49862C21.8384 6.74868 21.5937 6.54618 21.4935 6.68118C20.0896 8.514 18.3849 10.0894 16.4538 11.3388C16.295 11.4288 16.1282 11.4963 15.9531 11.5413C15.9531 11.4288 15.8753 11.26 15.8753 11.1363C15.9325 10.5019 15.8049 9.86441 15.5081 9.3025C15.3079 8.89749 14.6181 8.85248 13.8504 8.69498C12.2294 8.38522 10.5815 8.24198 8.93196 8.26747C7.66402 8.18327 6.39135 8.20585 5.12711 8.33497C3.52507 8.60498 3.18019 9.83126 3.81433 11.2488C3.85745 11.343 3.93521 11.4164 4.03106 11.4534C4.1269 11.4905 4.23327 11.4883 4.32751 11.4472C4.42175 11.4061 4.49643 11.3295 4.53564 11.2336C4.57486 11.1377 4.57551 11.0302 4.53747 10.9338C3.63632 8.80748 5.46087 8.99874 8.87633 9.21249C10.4729 9.22573 12.0641 9.39908 13.6268 9.73001C13.7158 9.73001 14.4167 10.1575 14.6504 10.0563C14.884 10.6975 14.5947 11.7663 14.9285 12.3063C16.1411 14.1637 20.5579 9.75251 22.0609 8.05371C22.5838 7.4462 23.1734 6.92869 22.9509 6.33242C22.6283 5.4999 18.8568 1.88856 18.0669 1.19104C17.4773 0.662275 16.7987 -0.507755 15.4636 0.246014C14.3511 0.85353 14.0841 2.78858 13.9951 4.04861L10.89 3.6886C7.36329 3.19359 2.72405 2.47357 0.742635 5.53365C-0.514523 7.4687 -0.0806363 9.22374 1.33228 11.0463C1.83932 11.8293 2.52153 12.4807 3.3237 12.9476M23.9522 19.4851C23.4422 17.6314 22.2787 16.0306 20.6814 14.985C20.6014 14.9594 20.515 14.9632 20.4375 14.9957C20.36 15.0282 20.2964 15.0874 20.2578 15.1627C20.2192 15.238 20.2082 15.3247 20.2267 15.4075C20.2451 15.4902 20.2919 15.5637 20.3587 15.615C21.0536 16.0569 21.6395 16.6533 22.072 17.3588C23.1846 18.9226 23.6073 20.3177 22.517 21.8589C22.1312 22.3568 21.6426 22.7637 21.0855 23.0513C20.5283 23.3388 19.9158 23.5001 19.2907 23.524C17.1658 23.7726 15.5971 23.3552 9.49935 22.4777C9.40924 22.4666 9.31783 22.4749 9.2311 22.502C9.14436 22.529 9.06425 22.5743 8.996 22.6348C8.92775 22.6954 8.8729 22.7698 8.83502 22.8532C8.79715 22.9366 8.77711 23.0272 8.77621 23.119C8.70945 24.1326 8.69833 25.2577 8.08644 25.6627C5.92337 24.9739 3.99567 23.6834 2.52379 21.9388C2.19004 21.4326 2.17891 21.2638 2.52379 20.6338C3.97888 18.7776 5.71332 17.1641 7.66368 15.8524C7.89731 15.6949 8.20882 15.6049 8.35344 15.5149C8.35344 16.6399 8.08644 17.765 8.5092 18.6312C8.72058 19.0362 9.37697 19.07 10.1669 19.2387C11.7876 19.5484 13.4351 19.6917 15.0842 19.6663C16.3525 19.7506 17.6253 19.727 18.8891 19.5988C20.4689 19.3288 20.836 18.125 20.1908 16.6399C20.1712 16.5905 20.1421 16.5456 20.1052 16.5077C20.0682 16.4699 20.0241 16.4399 19.9755 16.4195C19.9269 16.3992 19.8747 16.3889 19.8221 16.3893C19.7695 16.3897 19.7175 16.4008 19.6692 16.4218C19.6208 16.4429 19.5772 16.4735 19.5408 16.5119C19.5043 16.5503 19.4759 16.5957 19.4571 16.6454C19.4383 16.6951 19.4296 16.7481 19.4314 16.8012C19.4332 16.8544 19.4455 16.9067 19.4676 16.9549C20.3688 19.1262 18.5442 18.9125 15.1287 18.7212C13.5356 18.7126 11.9476 18.5392 10.3894 18.2037C10.3004 18.2037 9.6551 17.8212 9.3881 17.8662C9.19897 16.5049 10.2114 14.0737 8.27557 14.22C7.28542 14.2875 1.00853 19.1251 0.997404 21.3752C0.986279 23.6252 7.24982 27.6877 8.66273 26.9002C9.77526 26.2702 9.93101 25.1564 10.02 23.8739L13.0917 24.2451C16.674 24.7401 21.291 25.4602 23.2725 22.4001C23.8692 21.557 24.113 20.51 23.9511 19.4863" fill="#34C759"/>
</svg>
