<svg width="28" height="28" viewBox="0 0 28 28" fill="none" xmlns="http://www.w3.org/2000/svg">
<path fill-rule="evenodd" clip-rule="evenodd" d="M14.2877 25.6667C12.7069 25.6667 11.1657 25.6492 9.64091 25.6177C7.69024 25.5792 6.34041 24.3145 6.11991 22.3172C5.75241 19.0038 5.12357 11.1942 5.11774 11.116C5.07807 10.6342 5.43741 10.2118 5.91924 10.1733C6.39407 10.1605 6.82341 10.4942 6.86191 10.9748C6.86774 11.0542 7.49541 18.837 7.85941 22.1247C7.98424 23.2598 8.59674 23.8455 9.67707 23.8677C12.5937 23.9295 15.5699 23.933 18.7782 23.8747C19.9262 23.8525 20.5469 23.2785 20.6752 22.1165C21.0369 18.8568 21.6669 11.0542 21.6739 10.9748C21.7124 10.4942 22.1382 10.1582 22.6154 10.1733C23.0972 10.213 23.4566 10.6342 23.4181 11.116C23.4111 11.1953 22.7787 19.0248 22.4147 22.309C22.1884 24.3472 20.8421 25.5873 18.8097 25.6247C17.2546 25.6515 15.7542 25.6667 14.2877 25.6667" fill="#F75555"/>
<path fill-rule="evenodd" clip-rule="evenodd" d="M24.1593 8.15405H4.375C3.892 8.15405 3.5 7.76205 3.5 7.27905C3.5 6.79605 3.892 6.40405 4.375 6.40405H24.1593C24.6423 6.40405 25.0343 6.79605 25.0343 7.27905C25.0343 7.76205 24.6423 8.15405 24.1593 8.15405" fill="#F75555"/>
<path fill-rule="evenodd" clip-rule="evenodd" d="M20.3472 8.15424C19.0195 8.15424 17.8668 7.20807 17.6055 5.90607L17.322 4.48741C17.2625 4.27157 17.0163 4.08374 16.7363 4.08374H11.7978C11.5178 4.08374 11.2717 4.27157 11.2005 4.54107L10.9287 5.90607C10.6685 7.20807 9.51468 8.15424 8.18701 8.15424C7.70401 8.15424 7.31201 7.76224 7.31201 7.27924C7.31201 6.79624 7.70401 6.40424 8.18701 6.40424C8.68401 6.40424 9.11568 6.04957 9.21368 5.56191L9.49718 4.14324C9.78534 3.05591 10.7268 2.33374 11.7978 2.33374H16.7363C17.8073 2.33374 18.7488 3.05591 19.0253 4.09074L19.3217 5.56191C19.4185 6.04957 19.8502 6.40424 20.3472 6.40424C20.8302 6.40424 21.2222 6.79624 21.2222 7.27924C21.2222 7.76224 20.8302 8.15424 20.3472 8.15424" fill="#F75555"/>
</svg>
