<svg width="24" height="22" viewBox="0 0 24 22" fill="none" xmlns="http://www.w3.org/2000/svg">
<mask id="mask0_734_10498" style="mask-type:luminance" maskUnits="userSpaceOnUse" x="0" y="0" width="24" height="22">
<path fill-rule="evenodd" clip-rule="evenodd" d="M0 0H23.3333V21.1937H0V0Z" fill="white"/>
</mask>
<g mask="url(#mask0_734_10498)">
<path fill-rule="evenodd" clip-rule="evenodd" d="M1.75 13.9755V16.3613C1.75 17.185 2.06967 17.9585 2.65183 18.5407C3.234 19.1228 4.00867 19.4437 4.83117 19.4437H18.4998C20.1985 19.4437 21.5822 18.0623 21.5833 16.3637V13.9743C20.083 13.5858 18.9712 12.2197 18.97 10.5992C18.97 8.97867 20.0818 7.6125 21.5822 7.22283L21.5833 4.837C21.5845 3.136 20.2043 1.75117 18.5045 1.75H4.83467C3.13483 1.75 1.75117 3.1325 1.75 4.83233V7.30217C2.317 7.4375 2.84317 7.71633 3.28067 8.12467C3.9445 8.74417 4.32717 9.58417 4.35983 10.4918C4.36333 12.2022 3.2515 13.5835 1.75 13.9755M18.4998 21.1937H4.83233C3.54083 21.1937 2.3275 20.692 1.414 19.7785C0.501667 18.865 0 17.6517 0 16.3613V13.2113C0 12.7283 0.392 12.3363 0.875 12.3363C1.83633 12.3352 2.61333 11.5558 2.61217 10.5992C2.59583 10.1115 2.40917 9.7055 2.08717 9.4045C1.76633 9.1035 1.351 8.939 0.905333 8.9635C0.663833 8.96583 0.4375 8.883 0.267167 8.7185C0.0968333 8.554 0 8.32533 0 8.0885V4.8335C0.00116667 2.16767 2.17 0 4.83467 0H18.4987C21.1703 0.00116667 23.3357 2.1735 23.3333 4.83817V7.987C23.3333 8.47 22.9413 8.862 22.4583 8.862C21.5005 8.862 20.72 9.64133 20.72 10.598C20.7212 11.557 21.5005 12.3363 22.4583 12.3363C22.9413 12.3363 23.3333 12.7283 23.3333 13.2113V16.3613C23.3322 19.026 21.1633 21.1937 18.4998 21.1937" fill="#212121"/>
</g>
<path fill-rule="evenodd" clip-rule="evenodd" d="M9.45455 9.77754L10.0484 10.3562C10.3704 10.6724 10.5162 11.1227 10.4392 11.5625L10.2992 12.3769L11.033 11.9907C11.4285 11.7795 11.9034 11.7807 12.3024 11.993L13.0315 12.3757L12.8915 11.5602C12.818 11.1134 12.965 10.6665 13.2835 10.3562L13.8774 9.77754L13.0549 9.65854C12.6139 9.59438 12.2312 9.31671 12.034 8.91421L11.6665 8.17104L11.299 8.91538C11.1019 9.31671 10.7192 9.59438 10.2759 9.65854L9.45455 9.77754ZM13.5542 14.4512C13.3372 14.4512 13.1202 14.3987 12.9195 14.2925L11.6665 13.6357L10.4124 14.2937C9.95038 14.5352 9.40088 14.4967 8.98088 14.191C8.55971 13.8842 8.35321 13.3755 8.44071 12.8622L8.67988 11.4669L7.66605 10.4787C7.29388 10.1159 7.16088 9.58271 7.32071 9.08804C7.48171 8.59221 7.90171 8.23638 8.41621 8.16171L9.82088 7.95638L10.4474 6.68588C10.6772 6.21921 11.1439 5.92871 11.6665 5.92871C12.1869 5.92871 12.6547 6.21921 12.8845 6.68704L13.5122 7.95638L14.9145 8.16171C15.4302 8.23638 15.8514 8.59221 16.0112 9.08804C16.171 9.58271 16.0392 10.1159 15.6659 10.4799L14.6509 11.468L14.8912 12.8622C14.9787 13.3767 14.771 13.8865 14.3487 14.1922C14.1107 14.3637 13.833 14.4512 13.5542 14.4512V14.4512Z" fill="#212121"/>
</svg>
