<svg width="20" height="20" viewBox="0 0 20 20" fill="none" xmlns="http://www.w3.org/2000/svg">
<path fill-rule="evenodd" clip-rule="evenodd" d="M17.2922 18.2827H11.248C10.903 18.2827 10.623 18.0027 10.623 17.6577C10.623 17.3127 10.903 17.0327 11.248 17.0327H17.2922C17.6372 17.0327 17.9172 17.3127 17.9172 17.6577C17.9172 18.0027 17.6372 18.2827 17.2922 18.2827Z" fill="#616161"/>
<mask id="mask0_711_1969" style="mask-type:luminance" maskUnits="userSpaceOnUse" x="1" y="2" width="15" height="17">
<path fill-rule="evenodd" clip-rule="evenodd" d="M1.66699 2.5H15.9841V18.283H1.66699V2.5Z" fill="white"/>
</mask>
<g mask="url(#mask0_711_1969)">
<path fill-rule="evenodd" clip-rule="evenodd" d="M10.9256 4.18054L3.07972 13.993C2.93722 14.1714 2.88472 14.4014 2.93722 14.6222L3.50472 17.0264L6.03722 16.9947C6.27805 16.9922 6.50055 16.8847 6.64805 16.7014C9.32889 13.3472 14.4397 6.9522 14.5847 6.7647C14.7214 6.54304 14.7747 6.2297 14.7031 5.92804C14.6297 5.61887 14.4372 5.35637 14.1597 5.18887C14.1006 5.14804 12.6964 4.05804 12.6531 4.02387C12.1247 3.60054 11.3539 3.67387 10.9256 4.18054ZM3.01139 18.283C2.72222 18.283 2.47055 18.0847 2.40305 17.8022L1.72055 14.9097C1.57972 14.3105 1.71972 13.6922 2.10389 13.2122L9.95389 3.39387C9.95722 3.39054 9.95972 3.38637 9.96305 3.38304C10.8239 2.35387 12.3806 2.2022 13.4306 3.0447C13.4722 3.0772 14.8664 4.16054 14.8664 4.16054C15.3731 4.4622 15.7689 5.00137 15.9189 5.6397C16.0681 6.27137 15.9597 6.92304 15.6122 7.47387C15.5864 7.5147 15.5639 7.5497 7.62389 17.483C7.24139 17.9597 6.66805 18.2372 6.05222 18.2447L3.01972 18.283H3.01139Z" fill="#616161"/>
</g>
<path fill-rule="evenodd" clip-rule="evenodd" d="M13.5194 9.73698C13.386 9.73698 13.2527 9.69448 13.1385 9.60782L8.59519 6.11782C8.32185 5.90782 8.27019 5.51615 8.48019 5.24115C8.69102 4.96782 9.08269 4.91698 9.35685 5.12698L13.901 8.61615C14.1744 8.82615 14.226 9.21865 14.0152 9.49282C13.8927 9.65282 13.7069 9.73698 13.5194 9.73698Z" fill="#616161"/>
</svg>
