<svg width="24" height="23" viewBox="0 0 24 23" fill="none" xmlns="http://www.w3.org/2000/svg">
<mask id="mask0_711_3517" style="mask-type:luminance" maskUnits="userSpaceOnUse" x="0" y="0" width="24" height="23">
<path fill-rule="evenodd" clip-rule="evenodd" d="M0 0H23.8846V22.7512H0V0Z" fill="white"/>
</mask>
<g mask="url(#mask0_711_3517)">
<path fill-rule="evenodd" clip-rule="evenodd" d="M2.12746 10.6436C3.76313 15.7326 10.2253 19.8475 11.9426 20.866C13.6658 19.837 20.1746 15.6766 21.7578 10.6483C22.7973 7.39797 21.8325 3.2808 17.9988 2.0453C16.1415 1.44914 13.975 1.81197 12.4793 2.9693C12.1666 3.20964 11.7326 3.2143 11.4176 2.9763C9.83329 1.78514 7.76363 1.4363 5.87713 2.0453C2.04929 3.27964 1.08796 7.3968 2.12746 10.6436M11.9438 22.7513C11.7991 22.7513 11.6556 22.7163 11.525 22.6451C11.1598 22.4456 2.55796 17.7043 0.461461 11.178C0.460294 11.178 0.460294 11.1768 0.460294 11.1768C-0.855706 7.0678 0.609628 1.90414 5.34046 0.379304C7.56179 -0.339362 9.98263 -0.0231956 11.9403 1.2123C13.8373 0.0129711 16.3573 -0.318362 18.5343 0.379304C23.2698 1.90647 24.7398 7.06897 23.425 11.1768C21.3961 17.6285 12.7313 22.441 12.3638 22.6428C12.2331 22.7151 12.0885 22.7513 11.9438 22.7513" fill="#212121"/>
</g>
<path fill-rule="evenodd" clip-rule="evenodd" d="M18.8456 8.89573C18.3941 8.89573 18.0115 8.54923 17.9741 8.0919C17.8971 7.1329 17.2555 6.32323 16.342 6.02807C15.8811 5.87873 15.6291 5.38523 15.7773 4.92673C15.9278 4.46707 16.4166 4.2174 16.8786 4.36207C18.4688 4.87657 19.583 6.28473 19.7195 7.94957C19.758 8.4314 19.3998 8.85373 18.918 8.89223C18.8935 8.89457 18.8701 8.89573 18.8456 8.89573" fill="#212121"/>
</svg>
