<svg width="20" height="20" viewBox="0 0 20 20" fill="none" xmlns="http://www.w3.org/2000/svg">
<path d="M14.3664 11.9796C14.2043 12.8848 13.7688 13.7187 13.1185 14.3689C12.4681 15.0191 11.6342 15.4544 10.7289 15.6163C10.6945 15.6217 10.6598 15.6246 10.625 15.6249C10.4682 15.6248 10.3172 15.5659 10.2018 15.4597C10.0865 15.3535 10.0153 15.2079 10.0023 15.0516C9.98933 14.8954 10.0355 14.74 10.1318 14.6162C10.228 14.4924 10.3673 14.4094 10.5219 14.3835C11.8164 14.1655 12.9148 13.0671 13.1344 11.7702C13.1621 11.6067 13.2537 11.4609 13.3889 11.365C13.5242 11.269 13.692 11.2307 13.8555 11.2585C14.019 11.2862 14.1647 11.3778 14.2607 11.513C14.3566 11.6483 14.395 11.8161 14.3672 11.9796H14.3664ZM16.875 11.2499C16.875 13.0732 16.1507 14.8219 14.8614 16.1112C13.572 17.4005 11.8234 18.1249 10 18.1249C8.17664 18.1249 6.42795 17.4005 5.13864 16.1112C3.84933 14.8219 3.125 13.0732 3.125 11.2499C3.125 9.06862 3.98438 6.83815 5.67656 4.62097C5.73013 4.55076 5.79796 4.4927 5.87559 4.45062C5.95323 4.40853 6.0389 4.38338 6.12696 4.37681C6.21502 4.37024 6.30347 4.3824 6.38649 4.4125C6.46951 4.4426 6.54521 4.48995 6.60859 4.55144L8.49297 6.38034L10.2117 1.66081C10.2461 1.56668 10.3025 1.48219 10.3764 1.41445C10.4502 1.34671 10.5392 1.29772 10.636 1.27161C10.7327 1.24549 10.8343 1.24301 10.9322 1.26438C11.0301 1.28575 11.1214 1.33035 11.1984 1.3944C12.907 2.81237 16.875 6.60534 16.875 11.2499ZM15.625 11.2499C15.625 7.64909 12.8289 4.53737 11.0773 2.94284L9.3375 7.71394C9.30179 7.81193 9.24213 7.89943 9.16395 7.96846C9.08577 8.03749 8.99155 8.08586 8.88989 8.10916C8.78823 8.13246 8.68236 8.12994 8.58192 8.10185C8.48148 8.07375 8.38966 8.02097 8.31484 7.94831L6.25469 5.94987C5.00703 7.75065 4.375 9.53112 4.375 11.2499C4.375 12.7417 4.96763 14.1725 6.02252 15.2273C7.07742 16.2822 8.50816 16.8749 10 16.8749C11.4918 16.8749 12.9226 16.2822 13.9775 15.2273C15.0324 14.1725 15.625 12.7417 15.625 11.2499Z" fill="#F54336"/>
</svg>
