<svg width="20" height="20" viewBox="0 0 20 20" fill="none" xmlns="http://www.w3.org/2000/svg">
<path d="M16.2547 14.375H11.875C11.7092 14.375 11.5503 14.4408 11.4331 14.5581C11.3158 14.6753 11.25 14.8342 11.25 15V15.9375C11.25 16.6839 11.5465 17.3998 12.0743 17.9276C12.6021 18.4554 13.318 18.752 14.0645 18.752C14.8109 18.752 15.5268 18.4554 16.0546 17.9276C16.5824 17.3998 16.8789 16.6839 16.8789 15.9375V15C16.8789 14.8344 16.8132 14.6755 16.6961 14.5583C16.5791 14.4411 16.4203 14.3752 16.2547 14.375ZM15.6297 15.9375C15.6297 16.3519 15.4651 16.7493 15.172 17.0424C14.879 17.3354 14.4816 17.5 14.0672 17.5C13.6528 17.5 13.2554 17.3354 12.9623 17.0424C12.6693 16.7493 12.5047 16.3519 12.5047 15.9375V15.625H15.6297V15.9375ZM8.125 12.5H3.75C3.58424 12.5 3.42527 12.5658 3.30806 12.6831C3.19085 12.8003 3.125 12.9592 3.125 13.125V14.0625C3.125 14.8084 3.42131 15.5238 3.94876 16.0512C4.47621 16.5787 5.19158 16.875 5.9375 16.875C6.68342 16.875 7.39879 16.5787 7.92624 16.0512C8.45368 15.5238 8.75 14.8084 8.75 14.0625V13.125C8.75 12.9592 8.68415 12.8003 8.56694 12.6831C8.44973 12.5658 8.29076 12.5 8.125 12.5ZM7.5 14.0625C7.5 14.4769 7.33538 14.8743 7.04235 15.1674C6.74933 15.4604 6.3519 15.625 5.9375 15.625C5.5231 15.625 5.12567 15.4604 4.83264 15.1674C4.53962 14.8743 4.375 14.4769 4.375 14.0625V13.75H7.5V14.0625ZM5.9375 1.25C5.02812 1.25 4.14609 2.05547 3.45312 3.51562C2.36484 5.81094 2.00312 9.21875 3.47578 11.0156C3.5345 11.0873 3.60842 11.145 3.6922 11.1846C3.77597 11.2242 3.8675 11.2447 3.96016 11.2445H7.90937C8.00203 11.2447 8.09356 11.2242 8.17733 11.1846C8.26111 11.145 8.33503 11.0873 8.39375 11.0156C9.86641 9.21875 9.50469 5.80859 8.41641 3.51562C7.72266 2.05547 6.84141 1.25 5.9375 1.25ZM7.58984 10H4.27969C3.38906 8.58594 3.7164 5.88281 4.58359 4.05391C5.08906 2.98594 5.63828 2.5 5.9375 2.5C6.23672 2.5 6.78281 2.98594 7.28906 4.05391C8.15312 5.88281 8.48047 8.58594 7.58984 10ZM12.0906 13.125H16.0398C16.1325 13.1251 16.224 13.1047 16.3078 13.0651C16.3916 13.0255 16.4655 12.9678 16.5242 12.8961C17.9969 11.0992 17.6352 7.68906 16.5469 5.39609C15.8539 3.93047 14.9719 3.125 14.0625 3.125C13.1531 3.125 12.2742 3.93047 11.5805 5.39062C10.4922 7.68594 10.1305 11.0937 11.6031 12.8906C11.6618 12.9635 11.7361 13.0224 11.8204 13.0629C11.9047 13.1034 11.997 13.1247 12.0906 13.125ZM12.7156 5.92891C13.2203 4.86094 13.7695 4.375 14.0625 4.375C14.3555 4.375 14.9078 4.86094 15.4133 5.92891C16.2805 7.75781 16.6078 10.4602 15.718 11.875H12.4102C11.5195 10.4609 11.8469 7.75781 12.7141 5.92891H12.7156Z" fill="#FF981F"/>
</svg>
