<svg width="60" height="60" viewBox="0 0 60 60" fill="none" xmlns="http://www.w3.org/2000/svg">
<path d="M48.75 22.5C48.75 18.8716 47.6971 15.3211 45.7191 12.2792C43.7412 9.23723 40.9231 6.83456 37.6067 5.36254C34.2902 3.89052 30.6179 3.4124 27.0351 3.98616C23.4523 4.55992 20.1129 6.16091 17.422 8.59496C14.7311 11.029 12.8043 14.1916 11.8751 17.699C10.946 21.2065 11.0546 24.9082 12.1876 28.3552C13.3206 31.8022 15.4295 34.8464 18.2584 37.1186C21.0873 39.3908 24.5147 40.7934 28.125 41.1563V46.875H20.625C20.1277 46.875 19.6508 47.0726 19.2992 47.4242C18.9475 47.7758 18.75 48.2527 18.75 48.75C18.75 49.2473 18.9475 49.7242 19.2992 50.0758C19.6508 50.4275 20.1277 50.625 20.625 50.625H28.125V56.25C28.125 56.7473 28.3225 57.2242 28.6742 57.5758C29.0258 57.9275 29.5027 58.125 30 58.125C30.4973 58.125 30.9742 57.9275 31.3258 57.5758C31.6775 57.2242 31.875 56.7473 31.875 56.25V50.625H39.375C39.8723 50.625 40.3492 50.4275 40.7008 50.0758C41.0525 49.7242 41.25 49.2473 41.25 48.75C41.25 48.2527 41.0525 47.7758 40.7008 47.4242C40.3492 47.0726 39.8723 46.875 39.375 46.875H31.875V41.1563C36.4977 40.6859 40.7818 38.5181 43.8988 35.072C47.0158 31.626 48.7443 27.1466 48.75 22.5ZM15 22.5C15 19.5333 15.8797 16.6332 17.528 14.1665C19.1762 11.6997 21.5189 9.77714 24.2598 8.64183C27.0006 7.50651 30.0166 7.20946 32.9264 7.78824C35.8361 8.36702 38.5088 9.79563 40.6066 11.8934C42.7044 13.9912 44.133 16.6639 44.7118 19.5737C45.2906 22.4834 44.9935 25.4994 43.8582 28.2403C42.7229 30.9812 40.8003 33.3238 38.3336 34.9721C35.8668 36.6203 32.9667 37.5 30 37.5C26.0231 37.4957 22.2103 35.9139 19.3982 33.1018C16.5861 30.2897 15.0043 26.4769 15 22.5Z" fill="#212121"/>
</svg>
