<svg width="60" height="60" viewBox="0 0 60 60" fill="none" xmlns="http://www.w3.org/2000/svg">
<path d="M50.625 7.5H39.375C38.8777 7.5 38.4008 7.69754 38.0492 8.04918C37.6976 8.40081 37.5 8.87772 37.5 9.375C37.5 9.87228 37.6976 10.3492 38.0492 10.7008C38.4008 11.0525 38.8777 11.25 39.375 11.25H46.0992L36.2391 21.1102C32.5146 18.0658 27.7626 16.5693 22.9658 16.9302C18.169 17.2912 13.6944 19.4819 10.4675 23.0493C7.24052 26.6167 5.50809 31.2879 5.6285 36.0967C5.74891 40.9056 7.71294 45.4842 11.1144 48.8856C14.5158 52.2871 19.0944 54.2511 23.9033 54.3715C28.7121 54.4919 33.3833 52.7595 36.9507 49.5326C40.5181 46.3056 42.7089 41.831 43.0698 37.0342C43.4307 32.2374 41.9342 27.4854 38.8899 23.7609L48.75 13.9031V20.625C48.75 21.1223 48.9476 21.5992 49.2992 21.9508C49.6508 22.3025 50.1277 22.5 50.625 22.5C51.1223 22.5 51.5992 22.3025 51.9508 21.9508C52.3025 21.5992 52.5 21.1223 52.5 20.625V9.375C52.5 8.87772 52.3025 8.40081 51.9508 8.04918C51.5992 7.69754 51.1223 7.5 50.625 7.5ZM34.9781 46.2398C32.8801 48.337 30.2073 49.7649 27.2978 50.3431C24.3883 50.9214 21.3726 50.6239 18.6321 49.4884C15.8916 48.3529 13.5493 46.4303 11.9014 43.9637C10.2535 41.4971 9.37392 38.5973 9.37392 35.6309C9.37392 32.6644 10.2535 29.7646 11.9014 27.298C13.5493 24.8314 15.8916 22.9088 18.6321 21.7733C21.3726 20.6378 24.3883 20.3404 27.2978 20.9186C30.2073 21.4968 32.8801 22.9248 34.9781 25.0219C37.7869 27.8382 39.3642 31.6533 39.3642 35.6309C39.3642 39.6084 37.7869 43.4236 34.9781 46.2398Z" fill="white"/>
</svg>
