<svg width="24" height="24" viewBox="0 0 24 24" fill="none" xmlns="http://www.w3.org/2000/svg">
<path d="M20.9469 8.30545C20.9369 7.54807 20.7951 6.79822 20.5279 6.08945C20.2963 5.4916 19.9425 4.94864 19.4891 4.49528C19.0358 4.04191 18.4928 3.6881 17.8949 3.45645C17.1953 3.1938 16.4561 3.05179 15.7089 3.03645C14.7469 2.99345 14.4419 2.98145 11.9999 2.98145C9.55795 2.98145 9.24495 2.98145 8.28995 3.03645C7.54311 3.0519 6.8043 3.19391 6.10495 3.45645C5.50701 3.68793 4.96397 4.04169 4.51058 4.49508C4.05719 4.94847 3.70344 5.4915 3.47195 6.08945C3.20878 6.78858 3.06707 7.52756 3.05295 8.27445C3.00995 9.23745 2.99695 9.54245 2.99695 11.9844C2.99695 14.4264 2.99695 14.7384 3.05295 15.6944C3.06795 16.4424 3.20895 17.1804 3.47195 17.8814C3.70383 18.4792 4.05784 19.022 4.51138 19.4752C4.96492 19.9284 5.50801 20.282 6.10595 20.5134C6.80338 20.7866 7.54232 20.9388 8.29095 20.9634C9.25395 21.0064 9.55895 21.0194 12.0009 21.0194C14.4429 21.0194 14.7559 21.0194 15.7109 20.9634C16.4581 20.9487 17.1973 20.807 17.8969 20.5444C18.4946 20.3125 19.0375 19.9586 19.4908 19.5053C19.9441 19.052 20.298 18.5091 20.5299 17.9114C20.7929 17.2114 20.9339 16.4734 20.9489 15.7244C20.9919 14.7624 21.0049 14.4574 21.0049 12.0144C21.0029 9.57245 21.0029 9.26245 20.9469 8.30545ZM11.9939 16.6024C9.43995 16.6024 7.37095 14.5334 7.37095 11.9794C7.37095 9.42545 9.43995 7.35645 11.9939 7.35645C13.22 7.35645 14.3959 7.84351 15.2629 8.71049C16.1299 9.57747 16.6169 10.7533 16.6169 11.9794C16.6169 13.2055 16.1299 14.3814 15.2629 15.2484C14.3959 16.1154 13.22 16.6024 11.9939 16.6024ZM16.8009 8.26344C16.6593 8.26358 16.5191 8.23578 16.3883 8.18166C16.2574 8.12753 16.1385 8.04813 16.0384 7.948C15.9383 7.84787 15.8589 7.72898 15.8047 7.59813C15.7506 7.46729 15.7228 7.32705 15.7229 7.18545C15.7229 7.04395 15.7508 6.90383 15.805 6.7731C15.8591 6.64238 15.9385 6.52359 16.0385 6.42354C16.1386 6.32348 16.2574 6.24411 16.3881 6.18997C16.5188 6.13582 16.6589 6.10795 16.8004 6.10795C16.9419 6.10795 17.0821 6.13582 17.2128 6.18997C17.3435 6.24411 17.4623 6.32348 17.5624 6.42354C17.6624 6.52359 17.7418 6.64238 17.7959 6.7731C17.8501 6.90383 17.8779 7.04395 17.8779 7.18545C17.8779 7.78145 17.3959 8.26344 16.8009 8.26344Z" fill="#FF8D28"/>
<path d="M11.994 14.9816C13.6525 14.9816 14.997 13.6371 14.997 11.9786C14.997 10.3201 13.6525 8.97559 11.994 8.97559C10.3355 8.97559 8.99097 10.3201 8.99097 11.9786C8.99097 13.6371 10.3355 14.9816 11.994 14.9816Z" fill="#FF8D28"/>
</svg>
