<svg width="43" height="33" viewBox="0 0 43 33" fill="none" xmlns="http://www.w3.org/2000/svg">
<path d="M42.7133 26.12C42.7133 29.755 39.737 32.7149 36.0818 32.7149H0V6.59491C0 2.95992 2.97636 0 6.63153 0H42.7133V26.12Z" fill="white"/>
<path d="M30.9644 19.4213H33.7057C33.7841 19.4213 33.9668 19.3953 34.0451 19.3953C34.5673 19.2915 35.0112 18.8241 35.0112 18.175C35.0112 17.5519 34.5673 17.0845 34.0451 16.9547C33.9668 16.9287 33.8102 16.9287 33.7057 16.9287H30.9644V19.4213Z" fill="url(#paint0_linear_248_23309)"/>
<path d="M33.3926 2.20703C30.7817 2.20703 28.6409 4.31013 28.6409 6.93252V11.8398H35.3507C35.5074 11.8398 35.6901 11.8398 35.8207 11.8657C37.335 11.9436 38.4576 12.7225 38.4576 14.0727C38.4576 15.1372 37.7005 16.046 36.2906 16.2277V16.2796C37.831 16.3835 39.0059 17.2403 39.0059 18.5645C39.0059 19.9925 37.7005 20.9272 35.9773 20.9272H28.6147V30.534H35.5857C38.1965 30.534 40.3374 28.4309 40.3374 25.8085V2.20703H33.3926Z" fill="url(#paint1_linear_248_23309)"/>
<path d="M34.6717 14.3846C34.6717 13.7615 34.2279 13.346 33.7057 13.2682C33.6535 13.2682 33.523 13.2422 33.4447 13.2422H30.9644V15.527H33.4447C33.523 15.527 33.6796 15.527 33.7057 15.5011C34.2279 15.4232 34.6717 15.0078 34.6717 14.3846Z" fill="url(#paint2_linear_248_23309)"/>
<path d="M7.12745 2.20703C4.51661 2.20703 2.37572 4.31013 2.37572 6.93252V18.5905C3.70725 19.2396 5.09099 19.655 6.47474 19.655C8.11957 19.655 9.00725 18.6683 9.00725 17.3182V11.8138H13.0802V17.2922C13.0802 19.4213 11.7486 21.1609 7.23188 21.1609C4.4905 21.1609 2.34961 20.5637 2.34961 20.5637V30.508H9.32055C11.9314 30.508 14.0723 28.4049 14.0723 25.7825V2.20703H7.12745Z" fill="url(#paint3_linear_248_23309)"/>
<path d="M20.26 2.20703C17.6492 2.20703 15.5083 4.31013 15.5083 6.93252V13.112C16.7093 12.0994 18.798 11.4503 22.1659 11.6061C23.9674 11.684 25.8994 12.1773 25.8994 12.1773V14.1765C24.9334 13.6832 23.7847 13.2418 22.2965 13.138C19.7379 12.9562 18.1975 14.2025 18.1975 16.3835C18.1975 18.5905 19.7379 19.8367 22.2965 19.629C23.7847 19.5252 24.9334 19.0578 25.8994 18.5905V20.5897C25.8994 20.5897 23.9935 21.083 22.1659 21.1609C18.798 21.3167 16.7093 20.6676 15.5083 19.655V30.56H22.4792C25.0901 30.56 27.231 28.4569 27.231 25.8345V2.20703H20.26Z" fill="url(#paint4_linear_248_23309)"/>
<defs>
<linearGradient id="paint0_linear_248_23309" x1="28.6363" y1="18.1781" x2="40.3688" y2="18.1781" gradientUnits="userSpaceOnUse">
<stop stop-color="#007940"/>
<stop offset="0.2285" stop-color="#00873F"/>
<stop offset="0.7433" stop-color="#40A737"/>
<stop offset="1" stop-color="#5CB531"/>
</linearGradient>
<linearGradient id="paint1_linear_248_23309" x1="28.6361" y1="16.3592" x2="40.3695" y2="16.3592" gradientUnits="userSpaceOnUse">
<stop stop-color="#007940"/>
<stop offset="0.2285" stop-color="#00873F"/>
<stop offset="0.7433" stop-color="#40A737"/>
<stop offset="1" stop-color="#5CB531"/>
</linearGradient>
<linearGradient id="paint2_linear_248_23309" x1="28.6361" y1="14.3814" x2="40.3689" y2="14.3814" gradientUnits="userSpaceOnUse">
<stop stop-color="#007940"/>
<stop offset="0.2285" stop-color="#00873F"/>
<stop offset="0.7433" stop-color="#40A737"/>
<stop offset="1" stop-color="#5CB531"/>
</linearGradient>
<linearGradient id="paint3_linear_248_23309" x1="2.37019" y1="16.3592" x2="14.2842" y2="16.3592" gradientUnits="userSpaceOnUse">
<stop stop-color="#1F286F"/>
<stop offset="0.4751" stop-color="#004E94"/>
<stop offset="0.8261" stop-color="#0066B1"/>
<stop offset="1" stop-color="#006FBC"/>
</linearGradient>
<linearGradient id="paint4_linear_248_23309" x1="15.4408" y1="16.3592" x2="27.0121" y2="16.3592" gradientUnits="userSpaceOnUse">
<stop stop-color="#6C2C2F"/>
<stop offset="0.1735" stop-color="#882730"/>
<stop offset="0.5731" stop-color="#BE1833"/>
<stop offset="0.8585" stop-color="#DC0436"/>
<stop offset="1" stop-color="#E60039"/>
</linearGradient>
</defs>
</svg>
