<svg width="24" height="23" viewBox="0 0 24 23" fill="none" xmlns="http://www.w3.org/2000/svg">
<path fill-rule="evenodd" clip-rule="evenodd" d="M16.1584 0.000186284C16.8945 0.000186284 17.6295 0.10402 18.3284 0.33852C22.6345 1.73852 24.1862 6.46352 22.89 10.5935C22.155 12.704 20.9534 14.6302 19.3795 16.204C17.1267 18.3857 14.6545 20.3224 11.9934 21.9907L11.7017 22.1669L11.3984 21.979C8.72785 20.3224 6.24169 18.3857 3.96785 16.1924C2.40452 14.6185 1.20169 12.704 0.455019 10.5935C-0.863314 6.46352 0.688353 1.73852 5.04119 0.31402C5.37952 0.197353 5.72835 0.115686 6.07835 0.0701863H6.21835C6.54619 0.0223529 6.87169 0.000186284 7.19835 0.000186284H7.32669C8.06169 0.0223529 8.77335 0.150686 9.46285 0.385186H9.53168C9.57835 0.407353 9.61335 0.431853 9.63669 0.45402C9.89452 0.536853 10.1384 0.630186 10.3717 0.75852L10.815 0.956853C10.9221 1.01399 11.0424 1.10129 11.1463 1.17674C11.2121 1.22454 11.2714 1.26758 11.3167 1.29519C11.3357 1.30642 11.3551 1.31772 11.3746 1.3291C11.4746 1.3875 11.5788 1.44832 11.6667 1.51569C12.9629 0.525186 14.5367 -0.0114804 16.1584 0.000186284ZM19.2617 8.40019C19.74 8.38735 20.1484 8.00352 20.1834 7.51235V7.37352C20.2184 5.73902 19.2279 4.25852 17.7217 3.68685C17.2434 3.52235 16.7184 3.78019 16.5434 4.27019C16.38 4.76019 16.6367 5.29685 17.1267 5.47069C17.8745 5.75069 18.375 6.48685 18.375 7.30235V7.33852C18.3529 7.60569 18.4334 7.86352 18.5967 8.06185C18.76 8.26019 19.005 8.37569 19.2617 8.40019Z" fill="#F54336"/>
</svg>
