<svg width="20" height="18" viewBox="0 0 20 18" fill="none" xmlns="http://www.w3.org/2000/svg">
<path d="M14.7563 2.71387C15.136 2.71387 15.4498 2.99602 15.4995 3.3621L15.5063 3.46387V17.0816C15.5063 17.4959 15.1706 17.8316 14.7563 17.8316C14.3767 17.8316 14.0629 17.5495 14.0132 17.1834L14.0063 17.0816V3.46387C14.0063 3.04965 14.3421 2.71387 14.7563 2.71387Z" fill="#212121"/>
<path d="M18.3022 12.4562C18.5944 12.1627 19.0693 12.1616 19.3629 12.4538C19.6298 12.7194 19.6549 13.1361 19.4378 13.4302L19.3653 13.5145L15.2876 17.6111C15.021 17.8789 14.6028 17.9032 14.3087 17.6841L14.2244 17.6111L10.1467 13.5145C9.85445 13.2209 9.85555 12.746 10.1491 12.4538C10.416 12.1881 10.8327 12.1649 11.1258 12.3834L11.2098 12.4562L14.7556 16.0182L18.3022 12.4562Z" fill="#212121"/>
<path d="M4.82764 0.000976562C5.20733 0.000976562 5.52113 0.28313 5.57079 0.649206L5.57764 0.750977V14.3688C5.57764 14.783 5.24185 15.1188 4.82764 15.1188C4.44794 15.1188 4.13415 14.8366 4.08448 14.4705L4.07764 14.3688V0.750977C4.07764 0.336763 4.41342 0.000976562 4.82764 0.000976562Z" fill="#212121"/>
<path d="M4.29622 0.220897C4.56274 -0.0468569 4.98099 -0.0711981 5.2751 0.147873L5.35933 0.220897L9.43711 4.31756C9.72933 4.61113 9.72823 5.086 9.43466 5.37822C9.16778 5.64387 8.75106 5.66711 8.45795 5.44858L8.374 5.37577L4.82756 1.81267L1.28155 5.37577C1.0159 5.64265 0.599297 5.66782 0.305183 5.45064L0.220897 5.37822C-0.0459843 5.11257 -0.0711531 4.69596 0.146022 4.40185L0.218446 4.31756L4.29622 0.220897Z" fill="#212121"/>
</svg>
