<svg width="20" height="20" viewBox="0 0 20 20" fill="none" xmlns="http://www.w3.org/2000/svg">
<path fill-rule="evenodd" clip-rule="evenodd" d="M10.2088 7.08398C9.40459 7.08398 8.75043 7.73815 8.75043 8.54315C8.75043 9.34732 9.40459 10.0007 10.2088 10.0007C11.0129 10.0007 11.6671 9.34732 11.6671 8.54315C11.6671 7.73815 11.0129 7.08398 10.2088 7.08398ZM10.2088 11.2507C8.71543 11.2507 7.50043 10.0365 7.50043 8.54315C7.50043 7.04898 8.71543 5.83398 10.2088 5.83398C11.7021 5.83398 12.9171 7.04898 12.9171 8.54315C12.9171 10.0365 11.7021 11.2507 10.2088 11.2507Z" fill="#34C759"/>
<mask id="mask0_768_15524" style="mask-type:luminance" maskUnits="userSpaceOnUse" x="3" y="1" width="15" height="17">
<path fill-rule="evenodd" clip-rule="evenodd" d="M3.33334 1.66699H17.0829V17.917H3.33334V1.66699Z" fill="white"/>
</mask>
<g mask="url(#mask0_768_15524)">
<path fill-rule="evenodd" clip-rule="evenodd" d="M10.2079 2.91699C7.10625 2.91699 4.58292 5.46449 4.58292 8.59449C4.58292 12.577 9.26958 16.457 10.2079 16.6637C11.1462 16.4562 15.8329 12.5762 15.8329 8.59449C15.8329 5.46449 13.3096 2.91699 10.2079 2.91699ZM10.2079 17.917C8.71292 17.917 3.33292 13.2903 3.33292 8.59449C3.33292 4.77449 6.41708 1.66699 10.2079 1.66699C13.9987 1.66699 17.0829 4.77449 17.0829 8.59449C17.0829 13.2903 11.7029 17.917 10.2079 17.917Z" fill="#34C759"/>
</g>
</svg>
