<svg width="46" height="28" viewBox="0 0 46 28" fill="none" xmlns="http://www.w3.org/2000/svg">
<g clip-path="url(#clip0_248_23270)">
<path d="M29.2185 2.99512H16.7808V25.0062H29.2185V2.99512Z" fill="#FF5F00"/>
<path d="M17.5707 14.0003C17.5707 9.72253 19.5844 5.6392 22.9801 2.99475C16.8205 -1.78858 7.89686 -0.738581 3.04021 5.36697C-1.81644 11.4336 -0.750346 20.2225 5.4488 25.0059C10.6213 29.0114 17.8471 29.0114 23.0196 25.0059C19.5844 22.3614 17.5707 18.2781 17.5707 14.0003Z" fill="#EB001B"/>
<path d="M45.9998 14.0003C45.9998 21.7392 39.6427 28.0003 31.7852 28.0003C28.5869 28.0003 25.5071 26.9503 23.0195 25.0059C29.1792 20.2225 30.2453 11.4336 25.3886 5.32808C24.6779 4.47253 23.8882 3.65586 23.0195 2.99475C29.1792 -1.78858 38.1423 -0.738581 42.9594 5.36697C44.9337 7.81697 45.9998 10.8503 45.9998 14.0003Z" fill="#F79E1B"/>
<path d="M44.6573 22.6724V22.2057H44.8547V22.1279H44.3809V22.2057H44.5783V22.6724H44.6573ZM45.5654 22.6724V22.1279H45.4075L45.2495 22.5168L45.0916 22.1279H44.9336V22.6724H45.0521V22.2446L45.21 22.5946H45.3285L45.4864 22.2446V22.6724H45.5654Z" fill="#F79E1B"/>
</g>
<defs>
<clipPath id="clip0_248_23270">
<rect width="46" height="28" fill="white"/>
</clipPath>
</defs>
</svg>
