<svg width="20" height="20" viewBox="0 0 20 20" fill="none" xmlns="http://www.w3.org/2000/svg">
<path fill-rule="evenodd" clip-rule="evenodd" d="M9.81407 11.2207C9.25657 11.2207 8.70073 11.0365 8.23573 10.6682L4.49823 7.65485C4.22907 7.43818 4.1874 7.04401 4.40323 6.77568C4.62073 6.50818 5.01407 6.46568 5.2824 6.68151L9.01657 9.69151C9.48573 10.0632 10.1466 10.0632 10.6191 9.68818L14.3157 6.68318C14.5841 6.46401 14.9774 6.50568 15.1957 6.77401C15.4132 7.04151 15.3724 7.43485 15.1049 7.65318L11.4016 10.6632C10.9332 11.0348 10.3732 11.2207 9.81407 11.2207Z" fill="#212121"/>
<mask id="mask0_512_1466" style="mask-type:luminance" maskUnits="userSpaceOnUse" x="0" y="1" width="19" height="17">
<path fill-rule="evenodd" clip-rule="evenodd" d="M0.833252 1.66666H18.7498V17.9167H0.833252V1.66666Z" fill="white"/>
</mask>
<g mask="url(#mask0_512_1466)">
<path fill-rule="evenodd" clip-rule="evenodd" d="M5.69896 16.6667H13.8823C13.884 16.665 13.8906 16.6667 13.8956 16.6667C14.8465 16.6667 15.6898 16.3267 16.3365 15.6808C17.0873 14.9333 17.4998 13.8592 17.4998 12.6567V6.93332C17.4998 4.60582 15.9781 2.91666 13.8823 2.91666H5.70063C3.6048 2.91666 2.08313 4.60582 2.08313 6.93332V12.6567C2.08313 13.8592 2.49646 14.9333 3.24646 15.6808C3.89313 16.3267 4.7373 16.6667 5.6873 16.6667H5.69896ZM5.6848 17.9167C4.39896 17.9167 3.25063 17.45 2.36396 16.5667C1.37646 15.5817 0.83313 14.1933 0.83313 12.6567V6.93332C0.83313 3.93082 2.92563 1.66666 5.70063 1.66666H13.8823C16.6573 1.66666 18.7498 3.93082 18.7498 6.93332V12.6567C18.7498 14.1933 18.2065 15.5817 17.219 16.5667C16.3331 17.4492 15.184 17.9167 13.8956 17.9167H13.8823H5.70063H5.6848Z" fill="#212121"/>
</g>
</svg>
