<svg width="28" height="28" viewBox="0 0 28 28" fill="none" xmlns="http://www.w3.org/2000/svg">
<path fill-rule="evenodd" clip-rule="evenodd" d="M14.2313 26.2502H14.229C12.9212 26.249 11.6833 25.6727 10.7442 24.6262C10.421 24.268 10.4502 23.7139 10.8095 23.3919C11.1688 23.0675 11.7218 23.0967 12.045 23.4572C12.6493 24.1304 13.4252 24.5002 14.2302 24.5002H14.2313C15.0398 24.5002 15.8192 24.1304 16.4247 23.456C16.749 23.0979 17.302 23.0687 17.6602 23.3919C18.0195 23.715 18.0487 24.2692 17.7255 24.6274C16.7828 25.6739 15.5427 26.2502 14.2313 26.2502Z" fill="white"/>
<mask id="mask0_664_9359" style="mask-type:luminance" maskUnits="userSpaceOnUse" x="3" y="1" width="23" height="21">
<path fill-rule="evenodd" clip-rule="evenodd" d="M3.50009 1.16675H25.0798V21.4061H3.50009V1.16675Z" fill="white"/>
</mask>
<g mask="url(#mask0_664_9359)">
<path fill-rule="evenodd" clip-rule="evenodd" d="M14.2883 2.91675C10.2108 2.91675 7.36877 6.11108 7.36877 8.97758C7.36877 11.4031 6.69561 12.5242 6.10061 13.5136C5.62344 14.3081 5.24661 14.9357 5.24661 16.2996C5.44144 18.4999 6.89394 19.6561 14.2883 19.6561C21.6418 19.6561 23.1398 18.4486 23.3334 16.2237C23.3299 14.9357 22.9531 14.3081 22.4759 13.5136C21.8809 12.5242 21.2078 11.4031 21.2078 8.97758C21.2078 6.11108 18.3658 2.91675 14.2883 2.91675ZM14.2883 21.4061C8.83294 21.4061 3.90261 21.0211 3.50011 16.3742C3.49661 14.4516 4.08344 13.4739 4.60144 12.6129C5.12527 11.7402 5.61877 10.9177 5.61877 8.97758C5.61877 5.20575 9.10244 1.16675 14.2883 1.16675C19.4741 1.16675 22.9578 5.20575 22.9578 8.97758C22.9578 10.9177 23.4513 11.7402 23.9751 12.6129C24.4931 13.4739 25.0799 14.4516 25.0799 16.2996C24.6728 21.0211 19.7436 21.4061 14.2883 21.4061Z" fill="white"/>
</g>
</svg>
