<svg width="24" height="24" viewBox="0 0 24 24" fill="none" xmlns="http://www.w3.org/2000/svg">
<mask id="mask0_659_6074" style="mask-type:luminance" maskUnits="userSpaceOnUse" x="4" y="2" width="18" height="20">
<path fill-rule="evenodd" clip-rule="evenodd" d="M4.00049 2.01172H21.0532V21.8652H4.00049V2.01172Z" fill="white"/>
</mask>
<g mask="url(#mask0_659_6074)">
<path fill-rule="evenodd" clip-rule="evenodd" d="M8.57359 3.51172C6.91659 3.51172 5.54059 4.85372 5.50159 6.50872V17.2037C5.46459 18.9167 6.81459 20.3277 8.51059 20.3657H16.5746C18.2436 20.2967 19.5656 18.9097 19.5536 17.2097V8.33972L14.9186 3.51172H8.58559H8.57359ZM8.58559 21.8657H8.47659C5.95459 21.8087 3.94659 19.7107 4.00159 17.1877V6.49072C4.05959 4.00972 6.10859 2.01172 8.57159 2.01172H8.58859H15.2386C15.4426 2.01172 15.6376 2.09472 15.7796 2.24172L20.8446 7.51872C20.9786 7.65772 21.0536 7.84472 21.0536 8.03772V17.2037C21.0716 19.7127 19.1176 21.7627 16.6046 21.8647L8.58559 21.8657Z" fill="#9E9E9E"/>
</g>
<path fill-rule="evenodd" clip-rule="evenodd" d="M14.7889 16.1084H9.38892C8.97492 16.1084 8.63892 15.7724 8.63892 15.3584C8.63892 14.9444 8.97492 14.6084 9.38892 14.6084H14.7889C15.2029 14.6084 15.5389 14.9444 15.5389 15.3584C15.5389 15.7724 15.2029 16.1084 14.7889 16.1084Z" fill="#9E9E9E"/>
<path fill-rule="evenodd" clip-rule="evenodd" d="M12.7439 12.3564H9.38794C8.97394 12.3564 8.63794 12.0204 8.63794 11.6064C8.63794 11.1924 8.97394 10.8564 9.38794 10.8564H12.7439C13.1579 10.8564 13.4939 11.1924 13.4939 11.6064C13.4939 12.0204 13.1579 12.3564 12.7439 12.3564Z" fill="#9E9E9E"/>
<path fill-rule="evenodd" clip-rule="evenodd" d="M20.2986 8.984H17.5436C15.7136 8.979 14.2256 7.487 14.2256 5.659V2.75C14.2256 2.336 14.5616 2 14.9756 2C15.3896 2 15.7256 2.336 15.7256 2.75V5.659C15.7256 6.663 16.5426 7.481 17.5456 7.484H20.2986C20.7126 7.484 21.0486 7.82 21.0486 8.234C21.0486 8.648 20.7126 8.984 20.2986 8.984Z" fill="#9E9E9E"/>
</svg>
