<svg width="28" height="28" viewBox="0 0 28 28" fill="none" xmlns="http://www.w3.org/2000/svg">
<path d="M22.9444 6.22255V21.7781C22.9444 22.1907 22.7805 22.5863 22.4888 22.878C22.1971 23.1698 21.8014 23.3337 21.3889 23.3337H17.5C17.0874 23.3337 16.6918 23.1698 16.4 22.878C16.1083 22.5863 15.9444 22.1907 15.9444 21.7781V6.22255C15.9444 5.80999 16.1083 5.41433 16.4 5.1226C16.6918 4.83088 17.0874 4.66699 17.5 4.66699H21.3889C21.8014 4.66699 22.1971 4.83088 22.4888 5.1226C22.7805 5.41433 22.9444 5.80999 22.9444 6.22255ZM11.2778 4.66699H7.38887C6.97631 4.66699 6.58065 4.83088 6.28892 5.1226C5.9972 5.41433 5.83331 5.80999 5.83331 6.22255V21.7781C5.83331 22.1907 5.9972 22.5863 6.28892 22.878C6.58065 23.1698 6.97631 23.3337 7.38887 23.3337H11.2778C11.6903 23.3337 12.086 23.1698 12.3777 22.878C12.6694 22.5863 12.8333 22.1907 12.8333 21.7781V6.22255C12.8333 5.80999 12.6694 5.41433 12.3777 5.1226C12.086 4.83088 11.6903 4.66699 11.2778 4.66699Z" fill="#FF981F"/>
</svg>
