<svg width="28" height="28" viewBox="0 0 28 28" fill="none" xmlns="http://www.w3.org/2000/svg">
<path fill-rule="evenodd" clip-rule="evenodd" d="M6.61384 5.55301C6.64512 5.288 6.73784 5.03395 6.88464 4.8111C7.03143 4.58825 7.22824 4.40276 7.45938 4.2694C7.69052 4.13604 7.94961 4.0585 8.21601 4.04295C8.48241 4.0274 8.74876 4.07428 8.99384 4.17984C10.2328 4.70951 13.0095 5.96834 16.5328 8.00184C20.0573 10.0365 22.5365 11.8133 23.6133 12.6195C24.5327 13.309 24.535 14.6763 23.6145 15.3682C22.5482 16.1697 20.0993 17.9232 16.5328 19.9835C12.9628 22.0438 10.2188 23.2875 8.99151 23.8102C7.93451 24.2617 6.75151 23.5768 6.61384 22.437C6.45284 21.1047 6.15184 18.0795 6.15184 13.9938C6.15184 9.91051 6.45167 6.88651 6.61384 5.55301Z" fill="white"/>
</svg>
