<svg width="25" height="25" viewBox="0 0 25 25" fill="none" xmlns="http://www.w3.org/2000/svg">
<path d="M23.7102 0L15.7889 2.96497L18.6318 4.75145C13.5533 11.126 6.20701 15.0525 0 16.547L1.75838 19.7397C8.7328 17.4738 16.1167 13.3865 20.8727 6.16563L23.0385 7.52625L23.7102 0ZM24.124 6.25134L23.8661 9.18684L21.1092 7.45125C21.0125 7.59588 20.9104 7.73516 20.8083 7.87979V25H25V6.25134H24.124ZM16.0307 13.108C15.3482 13.6972 14.6442 14.2543 13.9295 14.7793V25H18.1212V13.108H16.0307ZM9.38306 17.6077C8.6092 18.0148 7.83534 18.3898 7.05073 18.7433V25H11.2425V17.6077H9.38306ZM0.171969 19.9646V25H4.36371V19.9646H4.05847C3.26204 20.2593 2.46614 20.5325 1.67509 20.7842L1.29568 20.9021L0.779772 19.9646H0.171969Z" fill="#34C759"/>
</svg>
