<svg width="20" height="20" viewBox="0 0 20 20" fill="none" xmlns="http://www.w3.org/2000/svg">
<path d="M16.8586 9.23208C16.835 9.1319 16.7869 9.03913 16.7188 8.96199C16.6506 8.88484 16.5645 8.82573 16.468 8.78989L11.9672 7.10161L13.1125 1.3727C13.1385 1.23959 13.1204 1.10166 13.0611 0.979716C13.0017 0.857774 12.9043 0.758439 12.7836 0.6967C12.6629 0.634962 12.5253 0.61417 12.3917 0.637463C12.2581 0.660755 12.1357 0.726868 12.043 0.825824L3.29299 10.2008C3.22193 10.2757 3.17052 10.367 3.14336 10.4666C3.1162 10.5662 3.11413 10.671 3.13734 10.7716C3.16056 10.8722 3.20833 10.9655 3.27639 11.0431C3.34445 11.1207 3.43068 11.1803 3.52737 11.2165L8.02971 12.9047L6.88753 18.6274C6.86159 18.7605 6.87965 18.8984 6.93899 19.0204C6.99832 19.1423 7.09571 19.2416 7.21645 19.3034C7.3372 19.3651 7.47474 19.3859 7.60834 19.3626C7.74194 19.3393 7.86433 19.2732 7.95706 19.1743L16.7071 9.79926C16.7768 9.72436 16.8272 9.63347 16.8536 9.53457C16.88 9.43567 16.8817 9.3318 16.8586 9.23208ZM8.54456 16.7188L9.36253 12.6266C9.3918 12.4815 9.3686 12.3307 9.29707 12.201C9.22553 12.0714 9.1103 11.9714 8.9719 11.9188L4.84378 10.368L11.4547 3.2852L10.6375 7.37739C10.6083 7.52252 10.6314 7.67333 10.703 7.80296C10.7745 7.93258 10.8898 8.0326 11.0282 8.0852L15.1532 9.63208L8.54456 16.7188Z" fill="#212121"/>
</svg>
