<svg width="27" height="26" viewBox="0 0 27 26" fill="none" xmlns="http://www.w3.org/2000/svg">
<path opacity="0.5" d="M10.75 24.75C6.03625 24.75 3.67875 24.75 2.215 23.3436C0.75125 21.9372 0.75 20.8752 0.75 16.35M25.75 16.35C25.75 20.8752 25.75 21.9384 24.285 23.3436C22.82 24.7488 20.4637 24.75 15.75 24.75M15.75 0.75C20.4637 0.75 22.8212 0.75 24.285 2.1564C25.7487 3.5628 25.75 4.6248 25.75 9.15M10.75 0.75C6.03625 0.75 3.67875 0.75 2.215 2.1564C0.75125 3.5628 0.75 4.6248 0.75 9.15" stroke="black" stroke-width="1.5" stroke-linecap="round"/>
<path d="M0.75 12.75H25.75" stroke="black" stroke-width="1.5" stroke-linecap="round"/>
</svg>
