<svg width="20" height="20" viewBox="0 0 20 20" fill="none" xmlns="http://www.w3.org/2000/svg">
<path fill-rule="evenodd" clip-rule="evenodd" d="M18.9584 11.6292H1.45837C1.11337 11.6292 0.833374 11.3492 0.833374 11.0042C0.833374 10.6592 1.11337 10.3792 1.45837 10.3792H18.9584C19.3034 10.3792 19.5834 10.6592 19.5834 11.0042C19.5834 11.3492 19.3034 11.6292 18.9584 11.6292" fill="#212121"/>
<path fill-rule="evenodd" clip-rule="evenodd" d="M14.2892 18.1338H13.285C12.94 18.1338 12.66 17.8538 12.66 17.5088C12.66 17.1638 12.94 16.8838 13.285 16.8838H14.2892C15.66 16.8838 16.775 15.7688 16.775 14.3988V11.0029C16.775 10.6579 17.055 10.3779 17.4 10.3779C17.745 10.3779 18.025 10.6579 18.025 11.0029V14.3988C18.025 16.4579 16.3492 18.1338 14.2892 18.1338" fill="#212121"/>
<path fill-rule="evenodd" clip-rule="evenodd" d="M7.15744 18.1338H6.12743C4.06743 18.1338 2.3916 16.4579 2.3916 14.3988V11.0029C2.3916 10.6579 2.6716 10.3779 3.0166 10.3779C3.3616 10.3779 3.6416 10.6579 3.6416 11.0029V14.3988C3.6416 15.7688 4.7566 16.8838 6.12743 16.8838H7.15744C7.50244 16.8838 7.78244 17.1638 7.78244 17.5088C7.78244 17.8538 7.50244 18.1338 7.15744 18.1338" fill="#212121"/>
<path fill-rule="evenodd" clip-rule="evenodd" d="M17.3999 8.12083C17.0549 8.12083 16.7749 7.84083 16.7749 7.49583V6.23417C16.7749 4.865 15.6599 3.75 14.2891 3.75H13.2849C12.9399 3.75 12.6599 3.47 12.6599 3.125C12.6599 2.78 12.9399 2.5 13.2849 2.5H14.2891C16.3491 2.5 18.0249 4.17583 18.0249 6.23417V7.49583C18.0249 7.84083 17.7449 8.12083 17.3999 8.12083" fill="#212121"/>
<path fill-rule="evenodd" clip-rule="evenodd" d="M3.01672 8.12083C2.67172 8.12083 2.39172 7.84083 2.39172 7.49583V6.23417C2.39172 4.17583 4.06756 2.5 6.12756 2.5H7.15756C7.50256 2.5 7.78256 2.78 7.78256 3.125C7.78256 3.47 7.50256 3.75 7.15756 3.75H6.12756C4.75672 3.75 3.64172 4.865 3.64172 6.23417V7.49583C3.64172 7.84083 3.36172 8.12083 3.01672 8.12083" fill="#212121"/>
</svg>
