<svg width="20" height="24" viewBox="0 0 20 24" fill="none" xmlns="http://www.w3.org/2000/svg">
<mask id="mask0_734_10288" style="mask-type:luminance" maskUnits="userSpaceOnUse" x="0" y="0" width="20" height="24">
<path fill-rule="evenodd" clip-rule="evenodd" d="M0 0H19.7946V23.7482H0V0Z" fill="white"/>
</mask>
<g mask="url(#mask0_734_10288)">
<path fill-rule="evenodd" clip-rule="evenodd" d="M9.89732 1.74951C8.90798 1.74951 2.66632 3.94751 1.94648 4.54834C1.73415 4.76184 1.72598 5.13284 1.77148 7.61668C1.79248 8.81368 1.82165 10.44 1.82165 12.6917C1.82165 18.7595 8.49732 21.4533 9.89615 21.9492C11.2938 21.451 17.973 18.742 17.973 12.6917C17.973 10.4377 18.0022 8.81018 18.0243 7.61318C18.0687 5.13168 18.0605 4.76068 17.8353 4.53668C17.1295 3.94751 10.8867 1.74951 9.89732 1.74951M9.89732 23.7482C9.81215 23.7482 9.72698 23.7365 9.64415 23.7108C9.25332 23.593 0.0716503 20.7207 0.0716503 12.6917C0.0716503 10.4552 0.0424836 8.83701 0.0214836 7.64935C-0.032183 4.68251 -0.0438497 4.06418 0.72265 3.29885C1.63848 2.38068 8.57432 -0.000488281 9.89732 -0.000488281C11.2192 -0.000488281 18.155 2.38068 19.0732 3.29885C19.8385 4.06418 19.8268 4.68251 19.7731 7.64585C19.7521 8.83351 19.723 10.4517 19.723 12.6917C19.723 20.7207 10.5413 23.593 10.1505 23.7108C10.0677 23.7365 9.98248 23.7482 9.89732 23.7482" fill="#212121"/>
</g>
<path fill-rule="evenodd" clip-rule="evenodd" d="M9.07291 14.6054V14.6054C8.84074 14.6054 8.61791 14.5132 8.45341 14.3487L6.24608 12.139C5.90541 11.7972 5.90541 11.2419 6.24724 10.9012C6.58791 10.5594 7.14324 10.5594 7.48508 10.9012L9.07291 12.4914L13.0022 8.56204C13.3441 8.22021 13.8971 8.22021 14.2389 8.56204C14.5807 8.90387 14.5807 9.45804 14.2389 9.79987L9.69124 14.3487C9.52791 14.5132 9.30508 14.6054 9.07291 14.6054" fill="#212121"/>
</svg>
