<svg width="28" height="28" viewBox="0 0 28 28" fill="none" xmlns="http://www.w3.org/2000/svg">
<mask id="mask0_734_361" style="mask-type:luminance" maskUnits="userSpaceOnUse" x="2" y="2" width="23" height="25">
<path fill-rule="evenodd" clip-rule="evenodd" d="M2.33325 2.33398H24.8322V26.5085H2.33325V2.33398Z" fill="white"/>
</mask>
<g mask="url(#mask0_734_361)">
<path fill-rule="evenodd" clip-rule="evenodd" d="M8.40263 20.3473C8.66979 20.3473 8.93696 20.3812 9.19829 20.4512C9.98696 20.6635 10.6718 21.1908 11.0778 21.899C11.3415 22.3435 11.4873 22.8627 11.492 23.3923C11.492 24.1507 12.101 24.7585 12.85 24.7585H14.3118C15.0573 24.7585 15.6663 24.1542 15.6698 23.4087C15.6651 22.585 15.9871 21.8022 16.5763 21.213C17.1573 20.632 17.9693 20.2832 18.7813 20.3065C19.3133 20.3193 19.8255 20.4628 20.277 20.7195C20.9268 21.0917 21.7563 20.87 22.132 20.2283L22.9066 18.9368C23.0793 18.6393 23.1295 18.266 23.0373 17.9218C22.9463 17.5777 22.7176 17.279 22.4096 17.1028C21.6886 16.6875 21.1741 16.0178 20.9606 15.2152C20.7495 14.4277 20.865 13.5678 21.2768 12.8597C21.5451 12.393 21.9383 11.9998 22.4096 11.7292C23.042 11.3593 23.2636 10.5322 22.8961 9.88815C22.881 9.86248 22.867 9.83565 22.8553 9.80765L22.1716 8.62232C21.7995 7.97482 20.9711 7.75198 20.3213 8.12182C19.619 8.53715 18.7836 8.65615 17.981 8.44498C17.1795 8.23732 16.5075 7.72982 16.0886 7.01348C15.8203 6.56548 15.6745 6.04398 15.6698 5.51315C15.6803 5.11415 15.5403 4.75598 15.286 4.49348C15.0328 4.23215 14.677 4.08398 14.3118 4.08398H12.85C12.4883 4.08398 12.15 4.22515 11.8945 4.47948C11.6401 4.73498 11.5013 5.07448 11.5036 5.43615C11.4791 7.14182 10.085 8.51498 8.39679 8.51498C7.85546 8.50915 7.33396 8.36332 6.88129 8.09265C6.24546 7.73098 5.41479 7.95382 5.04262 8.60132L4.25279 9.89982C3.89113 10.5275 4.11279 11.357 4.75679 11.7315C5.71229 12.2845 6.30846 13.3158 6.30846 14.4218C6.30846 15.5278 5.71229 16.558 4.75446 17.1122C4.11396 17.4832 3.89229 18.308 4.26329 18.9497L4.99946 20.219C5.18146 20.5468 5.47896 20.7837 5.82313 20.8805C6.16612 20.9762 6.54412 20.9353 6.85912 20.7603C7.32229 20.4885 7.86129 20.3473 8.40263 20.3473M14.3118 26.5085H12.85C11.1361 26.5085 9.74196 25.1155 9.74196 23.4017C9.73962 23.1905 9.67896 22.9712 9.56579 22.781C9.38262 22.4613 9.08629 22.2327 8.74446 22.1417C8.40496 22.0507 8.03279 22.1008 7.72712 22.2782C6.99446 22.6865 6.13229 22.7857 5.34363 22.564C4.55613 22.3412 3.87596 21.7998 3.47696 21.0823L2.74779 19.8258C1.89496 18.3465 2.40246 16.4507 3.87946 15.5967C4.29829 15.3552 4.55846 14.9048 4.55846 14.4218C4.55846 13.9388 4.29829 13.4873 3.87946 13.2458C2.40129 12.3872 1.89496 10.4867 2.74663 9.00732L3.53762 7.70882C4.37879 6.24582 6.28046 5.73015 7.76329 6.58182C7.96512 6.70198 8.18446 6.76265 8.40729 6.76498C9.13412 6.76498 9.74196 6.16532 9.75362 5.42798C9.74896 4.61482 10.0698 3.83432 10.6543 3.24515C11.2411 2.65715 12.0205 2.33398 12.85 2.33398H14.3118C15.1471 2.33398 15.9591 2.67698 16.5413 3.27315C17.1223 3.87282 17.4431 4.69532 17.4186 5.52948C17.421 5.71732 17.4828 5.93432 17.5948 6.12448C17.7803 6.43948 18.0731 6.66115 18.4208 6.75215C18.7685 6.83848 19.1325 6.79182 19.4416 6.60865C20.935 5.75582 22.8355 6.26682 23.6883 7.74848L24.4151 9.00732C24.4338 9.04115 24.4501 9.07382 24.4641 9.10765C25.2365 10.5672 24.7208 12.4047 23.2858 13.2435C23.077 13.3637 22.9078 13.5317 22.7911 13.7347C22.6103 14.0485 22.5601 14.4218 22.6511 14.7648C22.7445 15.1148 22.9673 15.4053 23.2811 15.585C23.9893 15.9922 24.5178 16.6782 24.729 17.4703C24.9401 18.2613 24.8246 19.12 24.4128 19.8282L23.6381 21.1185C22.7853 22.5838 20.8848 23.0913 19.4066 22.2373C19.2095 22.1242 18.982 22.0623 18.7556 22.0565H18.7486C18.4115 22.0565 18.065 22.2 17.813 22.4508C17.5575 22.7063 17.4175 23.047 17.4198 23.4087C17.4116 25.1225 16.0175 26.5085 14.3118 26.5085" fill="#212121"/>
</g>
<path fill-rule="evenodd" clip-rule="evenodd" d="M13.5858 12.2202C12.3725 12.2202 11.3855 13.2084 11.3855 14.4217C11.3855 15.635 12.3725 16.6209 13.5858 16.6209C14.7992 16.6209 15.7862 15.635 15.7862 14.4217C15.7862 13.2084 14.7992 12.2202 13.5858 12.2202M13.5858 18.3709C11.4077 18.3709 9.6355 16.5999 9.6355 14.4217C9.6355 12.2435 11.4077 10.4702 13.5858 10.4702C15.764 10.4702 17.5362 12.2435 17.5362 14.4217C17.5362 16.5999 15.764 18.3709 13.5858 18.3709" fill="#212121"/>
</svg>
