<svg width="24" height="24" viewBox="0 0 24 24" fill="none" xmlns="http://www.w3.org/2000/svg">
<path fill-rule="evenodd" clip-rule="evenodd" d="M11.9994 9.64062C10.6694 9.64062 9.58838 10.7226 9.58838 12.0526C9.58838 13.3816 10.6694 14.4626 11.9994 14.4626C13.3294 14.4626 14.4114 13.3816 14.4114 12.0526C14.4114 10.7226 13.3294 9.64062 11.9994 9.64062ZM11.9994 15.9626C9.84238 15.9626 8.08838 14.2086 8.08838 12.0526C8.08838 9.89562 9.84238 8.14062 11.9994 8.14062C14.1564 8.14062 15.9114 9.89562 15.9114 12.0526C15.9114 14.2086 14.1564 15.9626 11.9994 15.9626Z" fill="#212121"/>
<mask id="mask0_786_15178" style="mask-type:luminance" maskUnits="userSpaceOnUse" x="2" y="4" width="20" height="17">
<path fill-rule="evenodd" clip-rule="evenodd" d="M2 4H21.9998V20.105H2V4Z" fill="white"/>
</mask>
<g mask="url(#mask0_786_15178)">
<path fill-rule="evenodd" clip-rule="evenodd" d="M3.56975 12.0527C5.42975 16.1617 8.56275 18.6047 11.9998 18.6057C15.4368 18.6047 18.5697 16.1617 20.4298 12.0527C18.5697 7.94475 15.4368 5.50175 11.9998 5.50075C8.56375 5.50175 5.42975 7.94475 3.56975 12.0527ZM12.0017 20.1057H11.9978H11.9967C7.86075 20.1027 4.14675 17.2038 2.06075 12.3488C1.97975 12.1597 1.97975 11.9458 2.06075 11.7568C4.14675 6.90275 7.86175 4.00375 11.9967 4.00075C11.9987 3.99975 11.9987 3.99975 11.9998 4.00075C12.0017 3.99975 12.0017 3.99975 12.0028 4.00075C16.1388 4.00375 19.8527 6.90275 21.9387 11.7568C22.0208 11.9458 22.0208 12.1597 21.9387 12.3488C19.8537 17.2038 16.1388 20.1027 12.0028 20.1057H12.0017Z" fill="#212121"/>
</g>
</svg>
