<svg width="28" height="28" viewBox="0 0 28 28" fill="none" xmlns="http://www.w3.org/2000/svg">
<path fill-rule="evenodd" clip-rule="evenodd" d="M13.7082 5.25C13.602 5.25 13.3407 5.27917 13.2018 5.55683L11.0715 9.81633C10.7343 10.4895 10.0845 10.9573 9.33315 11.0647L4.56382 11.7518C4.24882 11.7973 4.14149 12.0307 4.10882 12.1287C4.07965 12.2232 4.03299 12.4635 4.24999 12.6712L7.69865 15.9845C8.24815 16.513 8.49782 17.2748 8.36715 18.0203L7.55515 22.6987C7.50499 22.9915 7.68815 23.1618 7.76982 23.2202C7.85615 23.2855 8.08715 23.415 8.37299 23.2657L12.6372 21.0548C13.3092 20.7083 14.1095 20.7083 14.7792 21.0548L19.0422 23.2645C19.3292 23.4127 19.5602 23.2832 19.6477 23.2202C19.7293 23.1618 19.9125 22.9915 19.8623 22.6987L19.048 18.0203C18.9173 17.2748 19.167 16.513 19.7165 15.9845L23.1652 12.6712C23.3833 12.4635 23.3367 12.222 23.3063 12.1287C23.2748 12.0307 23.1675 11.7973 22.8525 11.7518L18.0832 11.0647C17.333 10.9573 16.6832 10.4895 16.346 9.81517L14.2133 5.55683C14.0757 5.27917 13.8143 5.25 13.7082 5.25M8.10465 25.0833C7.62282 25.0833 7.14449 24.9317 6.73499 24.633C6.02799 24.115 5.68149 23.2598 5.83199 22.3988L6.64399 17.7205C6.67432 17.5467 6.61482 17.3705 6.48649 17.2468L3.03782 13.9335C2.40315 13.3257 2.17565 12.4273 2.44399 11.5932C2.71465 10.7497 3.43099 10.1465 4.31415 10.0205L9.08349 9.33333C9.26782 9.30767 9.42649 9.1945 9.50582 9.0335L11.6373 4.77283C12.0305 3.98767 12.8238 3.5 13.7082 3.5V3.5C14.5925 3.5 15.3858 3.98767 15.779 4.77283L17.9117 9.03233C17.9922 9.1945 18.1497 9.30767 18.3328 9.33333L23.1022 10.0205C23.9853 10.1465 24.7017 10.7497 24.9723 11.5932C25.2407 12.4273 25.012 13.3257 24.3773 13.9335L20.9287 17.2468C20.8003 17.3705 20.742 17.5467 20.7723 17.7193L21.5855 22.3988C21.7348 23.261 21.3883 24.1162 20.6802 24.633C19.9627 25.1592 19.0282 25.2303 18.236 24.8173L13.9742 22.6088C13.8073 22.5225 13.6078 22.5225 13.441 22.6088L9.17915 24.8185C8.83849 24.9958 8.47099 25.0833 8.10465 25.0833" fill="#212121"/>
</svg>
