<svg width="25" height="28" viewBox="0 0 25 28" fill="none" xmlns="http://www.w3.org/2000/svg">
<path d="M13.1859 26.6977L13.1709 26.7002L13.0817 26.7442L13.0566 26.7492L13.039 26.7442L12.9498 26.699C12.9364 26.6956 12.9264 26.6981 12.9197 26.7065L12.9147 26.7191L12.8933 27.2566L12.8996 27.2817L12.9122 27.298L13.0428 27.391L13.0616 27.396L13.0767 27.391L13.2073 27.298L13.2224 27.2779L13.2274 27.2566L13.206 26.7203C13.2027 26.7069 13.196 26.6994 13.1859 26.6977ZM13.5175 26.5558L13.4999 26.5583L13.2688 26.6751L13.2563 26.6877L13.2525 26.7015L13.2751 27.2415L13.2814 27.2566L13.2914 27.2666L13.5439 27.3822C13.5598 27.3864 13.5719 27.383 13.5803 27.3721L13.5853 27.3545L13.5426 26.5834C13.5384 26.5675 13.53 26.5583 13.5175 26.5558ZM12.6195 26.5583C12.614 26.555 12.6074 26.5539 12.6011 26.5553C12.5948 26.5567 12.5892 26.5605 12.5856 26.5659L12.5781 26.5834L12.5354 27.3545C12.5362 27.3696 12.5434 27.3797 12.5568 27.3847L12.5756 27.3822L12.828 27.2654L12.8406 27.2553L12.8443 27.2415L12.8669 26.7015L12.8632 26.6864L12.8506 26.6739L12.6195 26.5583Z" fill="#34C759"/>
<path d="M8.80656 4.33023C9.55756 2.13246 12.5942 2.0659 13.4846 4.13055L13.56 4.33149L14.5735 7.29533C14.8057 7.97505 15.1811 8.59705 15.6741 9.11938C16.1672 9.64172 16.7666 10.0522 17.4318 10.3232L17.7043 10.425L20.6681 11.4372C22.8659 12.1882 22.9325 15.2249 20.8691 16.1153L20.6681 16.1906L17.7043 17.2041C17.0244 17.4362 16.4021 17.8115 15.8796 18.3046C15.357 18.7977 14.9463 19.3971 14.6752 20.0625L14.5735 20.3337L13.5612 23.2989C12.8102 25.4966 9.77357 25.5632 8.88442 23.4998L8.80656 23.2989L7.79433 20.335C7.56223 19.6551 7.18697 19.0328 6.69388 18.5103C6.20079 17.9877 5.60135 17.577 4.936 17.3059L4.66473 17.2041L1.70091 16.1919C-0.498102 15.4409 -0.564662 12.4042 1.49997 11.515L1.70091 11.4372L4.66473 10.425C5.34445 10.1927 5.96645 9.81736 6.48877 9.32428C7.0111 8.83119 7.42161 8.23182 7.69261 7.5666L7.79433 7.29533L8.80656 4.33023ZM11.1839 5.14152L10.1717 8.10537C9.81801 9.14184 9.24268 10.0888 8.48573 10.8802C7.72878 11.6716 6.80842 12.2886 5.78873 12.688L5.47476 12.8023L2.51094 13.8145L5.47476 14.8268C6.51123 15.1804 7.45815 15.7558 8.24958 16.5127C9.04101 17.2697 9.65794 18.1901 10.0574 19.2097L10.1717 19.5237L11.1839 22.4876L12.1961 19.5237C12.5498 18.4872 13.1251 17.5403 13.8821 16.7489C14.639 15.9574 15.5594 15.3405 16.5791 14.9411L16.893 14.828L19.8569 13.8145L16.893 12.8023C15.8566 12.4486 14.9097 11.8733 14.1182 11.1164C13.3268 10.3594 12.7099 9.43903 12.3104 8.41934L12.1974 8.10537L11.1839 5.14152ZM21.2308 2.2692e-07C21.4657 -2.9635e-07 21.696 0.0659058 21.8953 0.190228C22.0947 0.314551 22.2552 0.492303 22.3585 0.703286L22.4188 0.850223L22.8584 2.13874L24.1481 2.5783C24.3836 2.65829 24.59 2.80638 24.7412 3.0038C24.8924 3.20123 24.9816 3.43909 24.9974 3.68725C25.0133 3.93542 24.9552 4.18271 24.8303 4.39778C24.7055 4.61286 24.5197 4.78604 24.2963 4.89537L24.1481 4.95565L22.8596 5.39521L22.4201 6.68498C22.3399 6.92037 22.1917 7.12667 21.9942 7.27774C21.7967 7.42882 21.5588 7.51786 21.3107 7.5336C21.0625 7.54934 20.8153 7.49105 20.6003 7.36614C20.3853 7.24122 20.2122 7.0553 20.103 6.83192L20.0427 6.68498L19.6032 5.39646L18.3134 4.95691C18.078 4.87692 17.8716 4.72882 17.7204 4.5314C17.5692 4.33398 17.48 4.09612 17.4641 3.84795C17.4482 3.59979 17.5064 3.3525 17.6312 3.13742C17.756 2.92235 17.9419 2.74917 18.1652 2.63983L18.3134 2.57955L19.6019 2.14L20.0415 0.850223C20.1262 0.602095 20.2864 0.386692 20.4997 0.234218C20.7129 0.0817432 20.9686 -0.000157337 21.2308 2.2692e-07Z" fill="#34C759"/>
</svg>
