<svg width="28" height="28" viewBox="0 0 28 28" fill="none" xmlns="http://www.w3.org/2000/svg">
<path fill-rule="evenodd" clip-rule="evenodd" d="M15.8662 24.8314C15.3832 24.8314 14.9912 24.4394 14.9912 23.9564V21.5962C14.9912 21.112 15.3832 20.7212 15.8662 20.7212C16.3492 20.7212 16.7412 21.112 16.7412 21.5962V23.9564C16.7412 24.4394 16.3492 24.8314 15.8662 24.8314" fill="#212121"/>
<path fill-rule="evenodd" clip-rule="evenodd" d="M15.8662 18.4629C15.3832 18.4629 14.9912 18.0709 14.9912 17.5879V11.9634C14.9912 11.4804 15.3832 11.0884 15.8662 11.0884C16.3492 11.0884 16.7412 11.4804 16.7412 11.9634V17.5879C16.7412 18.0709 16.3492 18.4629 15.8662 18.4629" fill="#212121"/>
<path fill-rule="evenodd" clip-rule="evenodd" d="M15.8662 9.53251C15.3832 9.53251 14.9912 9.14051 14.9912 8.65751V5.83301C14.9912 5.35001 15.3832 4.95801 15.8662 4.95801C16.3492 4.95801 16.7412 5.35001 16.7412 5.83301V8.65751C16.7412 9.14051 16.3492 9.53251 15.8662 9.53251" fill="#212121"/>
<mask id="mask0_734_10392" style="mask-type:luminance" maskUnits="userSpaceOnUse" x="1" y="4" width="26" height="22">
<path fill-rule="evenodd" clip-rule="evenodd" d="M1.16675 4.6665H26.2501V25.0828H1.16675V4.6665Z" fill="white"/>
</mask>
<g mask="url(#mask0_734_10392)">
<path fill-rule="evenodd" clip-rule="evenodd" d="M2.91675 18.1462V20.4083C2.91675 22.0207 4.25025 23.3332 5.88942 23.3332H21.5274C23.1666 23.3332 24.5001 22.0207 24.5001 20.4083V18.1462C23.0406 17.7623 21.9602 16.4417 21.9602 14.876C21.9602 13.3092 23.0394 11.9897 24.5001 11.6058L24.4989 9.34134C24.4989 7.729 23.1654 6.4165 21.5262 6.4165H5.89058C4.25141 6.4165 2.91791 7.729 2.91791 9.34134L2.91675 11.6957C4.39491 12.0585 5.45658 13.3255 5.45658 14.876C5.45658 16.4417 4.37625 17.7623 2.91675 18.1462M21.5274 25.0832H5.88941C3.28541 25.0832 1.16675 22.9855 1.16675 20.4083V17.3843C1.16675 16.9013 1.55875 16.5093 2.04175 16.5093C2.95991 16.5093 3.70658 15.7767 3.70658 14.876C3.70658 14.001 2.99025 13.3407 2.04175 13.3407C1.80958 13.3407 1.58675 13.2485 1.42341 13.084C1.25891 12.9207 1.16675 12.6967 1.16675 12.4657L1.16791 9.34134C1.16791 6.76417 3.28658 4.6665 5.89058 4.6665H21.5262C24.1302 4.6665 26.2489 6.76417 26.2489 9.34134L26.2501 12.3677C26.2501 12.5987 26.1579 12.8227 25.9934 12.986C25.8301 13.1505 25.6072 13.2427 25.3751 13.2427C24.4569 13.2427 23.7102 13.9753 23.7102 14.876C23.7102 15.7767 24.4569 16.5093 25.3751 16.5093C25.8581 16.5093 26.2501 16.9013 26.2501 17.3843V20.4083C26.2501 22.9855 24.1314 25.0832 21.5274 25.0832" fill="#212121"/>
</g>
</svg>
