<svg width="20" height="20" viewBox="0 0 20 20" fill="none" xmlns="http://www.w3.org/2000/svg">
<path fill-rule="evenodd" clip-rule="evenodd" d="M10 2.91699C6.09417 2.91699 2.91667 6.09449 2.91667 10.0003C2.91667 13.9062 6.09417 17.0837 10 17.0837C13.9058 17.0837 17.0833 13.9062 17.0833 10.0003C17.0833 6.09449 13.9058 2.91699 10 2.91699ZM10 18.3337C5.405 18.3337 1.66667 14.5953 1.66667 10.0003C1.66667 5.40533 5.405 1.66699 10 1.66699C14.595 1.66699 18.3333 5.40533 18.3333 10.0003C18.3333 14.5953 14.595 18.3337 10 18.3337Z" fill="#4AAF57"/>
<path fill-rule="evenodd" clip-rule="evenodd" d="M12.8593 13.0773C12.7502 13.0773 12.6402 13.0489 12.5393 12.9898L9.39767 11.1156C9.20933 11.0023 9.09267 10.7981 9.09267 10.5781V6.53809C9.09267 6.19309 9.37267 5.91309 9.71767 5.91309C10.0635 5.91309 10.3427 6.19309 10.3427 6.53809V10.2231L13.1802 11.9148C13.476 12.0923 13.5735 12.4756 13.3968 12.7723C13.2793 12.9681 13.0718 13.0773 12.8593 13.0773Z" fill="#4AAF57"/>
</svg>
