<svg width="28" height="28" viewBox="0 0 28 28" fill="none" xmlns="http://www.w3.org/2000/svg">
<path d="M18.5295 25.0332H9.47003C9.07614 25.0332 8.75833 24.7136 8.75833 24.3188L7.38867 3.49939H20.6109L19.2412 24.3188C19.2412 24.7136 18.9234 25.0332 18.5295 25.0332Z" fill="#C5EAFF"/>
<path d="M18.5119 25.0332H14V3.49939H20.6111L19.2415 24.3032C19.2415 24.7065 18.9147 25.0332 18.5119 25.0332Z" fill="#B0DCF9"/>
<path d="M17.4016 24.0527H10.5935C9.81914 24.0527 9.60431 22.9109 9.60431 21.1478L8.78516 8.80821H19.2143L18.3952 22.5143C18.3952 22.9109 18.1893 24.0527 17.4016 24.0527Z" fill="#34C759"/>
<path d="M14 24.0527H17.4018C18.2567 24.0527 18.3955 22.9109 18.3955 22.5143L19.2146 8.80821H14V24.0527Z" fill="#34C759"/>
<path d="M16.4977 21.4951C16.4977 22.1123 15.9964 22.6123 15.3832 22.6123C14.7655 22.6123 14.2642 22.1123 14.2642 21.4951C14.2642 20.8783 14.7655 20.3779 15.3832 20.3779C15.9964 20.3779 16.4977 20.8783 16.4977 21.4951Z" fill="#B0DCF9"/>
<path d="M14.5012 19.4268C14.5012 19.8216 14.1789 20.1416 13.785 20.1416C13.3911 20.1416 13.0688 19.8216 13.0688 19.4268C13.0688 19.0316 13.3911 18.7115 13.785 18.7115C14.1789 18.7115 14.5012 19.0316 14.5012 19.4268Z" fill="#B0DCF9"/>
<path d="M15.4949 16.5972C15.4949 16.8823 15.2621 17.1133 14.9801 17.1133C14.6937 17.1133 14.4609 16.8823 14.4609 16.5972C14.4609 16.3121 14.6937 16.0811 14.9801 16.0811C15.2621 16.0811 15.4949 16.3121 15.4949 16.5972Z" fill="#B0DCF9"/>
<path d="M8.78538 8.80762L8.47656 3.94573H19.5011L19.2146 8.80762H8.78538Z" fill="#C5EAFF"/>
<path d="M14 8.80762H19.2281L19.51 3.94573H14V8.80762Z" fill="#B0DCF9"/>
</svg>
